<?xml version="1.0" encoding="UTF-8" standalone="no"?>
<!DOCTYPE svg PUBLIC "-//W3C//DTD SVG 1.1//EN"
 "http://www.w3.org/Graphics/SVG/1.1/DTD/svg11.dtd">
<!-- Generated by graphviz version 2.43.0 (0)
 -->
<!-- Title: %3 Pages: 1 -->
<svg width="2090pt" height="476pt"
 viewBox="0.00 0.00 2090.43 476.00" xmlns="http://www.w3.org/2000/svg" xmlns:xlink="http://www.w3.org/1999/xlink">
<g id="graph0" class="graph" transform="scale(1 1) rotate(0) translate(4 472)">
<title>%3</title>
<polygon fill="white" stroke="transparent" points="-4,4 -4,-472 2086.43,-472 2086.43,4 -4,4"/>
<!-- [root] data.hcloud_ssh_key.ssh_key (expand) -->
<g id="node1" class="node">
<title>[root] data.hcloud_ssh_key.ssh_key (expand)</title>
<polygon fill="none" stroke="black" points="1210.93,-180 990.93,-180 990.93,-144 1210.93,-144 1210.93,-180"/>
<text text-anchor="middle" x="1100.93" y="-158.3" font-family="Times,serif" font-size="14.00">data.hcloud_ssh_key.ssh_key</text>
</g>
<!-- [root] provider[&quot;registry.terraform.io/hetznercloud/hcloud&quot;] -->
<g id="node10" class="node">
<title>[root] provider[&quot;registry.terraform.io/hetznercloud/hcloud&quot;]</title>
<polygon fill="none" stroke="black" points="863.93,-108 499.12,-90 863.93,-72 1228.74,-90 863.93,-108"/>
<text text-anchor="middle" x="863.93" y="-86.3" font-family="Times,serif" font-size="14.00">provider[&quot;registry.terraform.io/hetznercloud/hcloud&quot;]</text>
</g>
<!-- [root] data.hcloud_ssh_key.ssh_key (expand)&#45;&gt;[root] provider[&quot;registry.terraform.io/hetznercloud/hcloud&quot;] -->
<g id="edge1" class="edge">
<title>[root] data.hcloud_ssh_key.ssh_key (expand)&#45;&gt;[root] provider[&quot;registry.terraform.io/hetznercloud/hcloud&quot;]</title>
<path fill="none" stroke="black" d="M1043.25,-143.97C1006.93,-133.24 960.15,-119.42 923.48,-108.59"/>
<polygon fill="black" stroke="black" points="924,-105.09 913.42,-105.62 922.02,-111.81 924,-105.09"/>
</g>
<!-- [root] var.hetzner_fingerprint -->
<g id="node12" class="node">
<title>[root] var.hetzner_fingerprint</title>
<polygon fill="none" stroke="black" points="1422.93,-108 1246.93,-108 1246.93,-72 1428.93,-72 1428.93,-102 1422.93,-108"/>
<polyline fill="none" stroke="black" points="1422.93,-108 1422.93,-102 "/>
<polyline fill="none" stroke="black" points="1428.93,-102 1422.93,-102 "/>
<text text-anchor="middle" x="1337.93" y="-86.3" font-family="Times,serif" font-size="14.00">var.hetzner_fingerprint</text>
</g>
<!-- [root] data.hcloud_ssh_key.ssh_key (expand)&#45;&gt;[root] var.hetzner_fingerprint -->
<g id="edge2" class="edge">
<title>[root] data.hcloud_ssh_key.ssh_key (expand)&#45;&gt;[root] var.hetzner_fingerprint</title>
<path fill="none" stroke="black" d="M1158.6,-143.97C1192.29,-134.01 1234.98,-121.41 1270.26,-110.99"/>
<polygon fill="black" stroke="black" points="1271.4,-114.3 1279.99,-108.11 1269.41,-107.59 1271.4,-114.3"/>
</g>
<!-- [root] hcloud_server.node (expand) -->
<g id="node2" class="node">
<title>[root] hcloud_server.node (expand)</title>
<polygon fill="none" stroke="black" points="1177.93,-252 1023.93,-252 1023.93,-216 1177.93,-216 1177.93,-252"/>
<text text-anchor="middle" x="1100.93" y="-230.3" font-family="Times,serif" font-size="14.00">hcloud_server.node</text>
</g>
<!-- [root] hcloud_server.node (expand)&#45;&gt;[root] data.hcloud_ssh_key.ssh_key (expand) -->
<g id="edge3" class="edge">
<title>[root] hcloud_server.node (expand)&#45;&gt;[root] data.hcloud_ssh_key.ssh_key (expand)</title>
<path fill="none" stroke="black" d="M1100.93,-215.7C1100.93,-207.98 1100.93,-198.71 1100.93,-190.11"/>
<polygon fill="black" stroke="black" points="1104.43,-190.1 1100.93,-180.1 1097.43,-190.1 1104.43,-190.1"/>
</g>
<!-- [root] local.domain_name (expand) -->
<g id="node18" class="node">
<title>[root] local.domain_name (expand)</title>
<ellipse fill="none" stroke="black" cx="1720.93" cy="-162" rx="170.87" ry="18"/>
<text text-anchor="middle" x="1720.93" y="-158.3" font-family="Times,serif" font-size="14.00">[root] local.domain_name (expand)</text>
</g>
<!-- [root] hcloud_server.node (expand)&#45;&gt;[root] local.domain_name (expand) -->
<g id="edge4" class="edge">
<title>[root] hcloud_server.node (expand)&#45;&gt;[root] local.domain_name (expand)</title>
<path fill="none" stroke="black" d="M1178.22,-217.36C1181.16,-216.88 1184.07,-216.42 1186.93,-216 1317.39,-196.68 1466.85,-182.52 1574.4,-173.72"/>
<polygon fill="black" stroke="black" points="1575,-177.18 1584.68,-172.89 1574.43,-170.21 1575,-177.18"/>
</g>
<!-- [root] null_resource.deployment (expand) -->
<g id="node3" class="node">
<title>[root] null_resource.deployment (expand)</title>
<polygon fill="none" stroke="black" points="1644.43,-324 1443.43,-324 1443.43,-288 1644.43,-288 1644.43,-324"/>
<text text-anchor="middle" x="1543.93" y="-302.3" font-family="Times,serif" font-size="14.00">null_resource.deployment</text>
</g>
<!-- [root] null_resource.deployment (expand)&#45;&gt;[root] hcloud_server.node (expand) -->
<g id="edge5" class="edge">
<title>[root] null_resource.deployment (expand)&#45;&gt;[root] hcloud_server.node (expand)</title>
<path fill="none" stroke="black" d="M1443.31,-291.37C1374.2,-281.7 1280.1,-267.93 1188.28,-252.19"/>
<polygon fill="black" stroke="black" points="1188.7,-248.72 1178.25,-250.47 1187.51,-255.61 1188.7,-248.72"/>
</g>
<!-- [root] provider[&quot;registry.terraform.io/hashicorp/null&quot;] -->
<g id="node9" class="node">
<title>[root] provider[&quot;registry.terraform.io/hashicorp/null&quot;]</title>
<polygon fill="none" stroke="black" points="1519.93,-252 1195.5,-234 1519.93,-216 1844.35,-234 1519.93,-252"/>
<text text-anchor="middle" x="1519.93" y="-230.3" font-family="Times,serif" font-size="14.00">provider[&quot;registry.terraform.io/hashicorp/null&quot;]</text>
</g>
<!-- [root] null_resource.deployment (expand)&#45;&gt;[root] provider[&quot;registry.terraform.io/hashicorp/null&quot;] -->
<g id="edge6" class="edge">
<title>[root] null_resource.deployment (expand)&#45;&gt;[root] provider[&quot;registry.terraform.io/hashicorp/null&quot;]</title>
<path fill="none" stroke="black" d="M1537.99,-287.7C1535.32,-279.9 1532.1,-270.51 1529.13,-261.83"/>
<polygon fill="black" stroke="black" points="1532.35,-260.43 1525.79,-252.1 1525.72,-262.7 1532.35,-260.43"/>
</g>
<!-- [root] var.project_version -->
<g id="node17" class="node">
<title>[root] var.project_version</title>
<polygon fill="none" stroke="black" points="2007.93,-252 1861.93,-252 1861.93,-216 2013.93,-216 2013.93,-246 2007.93,-252"/>
<polyline fill="none" stroke="black" points="2007.93,-252 2007.93,-246 "/>
<polyline fill="none" stroke="black" points="2013.93,-246 2007.93,-246 "/>
<text text-anchor="middle" x="1937.93" y="-230.3" font-family="Times,serif" font-size="14.00">var.project_version</text>
</g>
<!-- [root] null_resource.deployment (expand)&#45;&gt;[root] var.project_version -->
<g id="edge7" class="edge">
<title>[root] null_resource.deployment (expand)&#45;&gt;[root] var.project_version</title>
<path fill="none" stroke="black" d="M1644.6,-288.45C1702.47,-278.77 1776.79,-266.04 1851.43,-252.25"/>
<polygon fill="black" stroke="black" points="1852.3,-255.65 1861.49,-250.39 1851.02,-248.77 1852.3,-255.65"/>
</g>
<!-- [root] output.ip -->
<g id="node4" class="node">
<title>[root] output.ip</title>
<polygon fill="none" stroke="black" points="1143.93,-324 1067.93,-324 1067.93,-288 1149.93,-288 1149.93,-318 1143.93,-324"/>
<polyline fill="none" stroke="black" points="1143.93,-324 1143.93,-318 "/>
<polyline fill="none" stroke="black" points="1149.93,-318 1143.93,-318 "/>
<text text-anchor="middle" x="1108.93" y="-302.3" font-family="Times,serif" font-size="14.00">output.ip</text>
</g>
<!-- [root] output.ip&#45;&gt;[root] hcloud_server.node (expand) -->
<g id="edge8" class="edge">
<title>[root] output.ip&#45;&gt;[root] hcloud_server.node (expand)</title>
<path fill="none" stroke="black" d="M1106.95,-287.7C1106.07,-279.98 1105.01,-270.71 1104.03,-262.11"/>
<polygon fill="black" stroke="black" points="1107.49,-261.64 1102.88,-252.1 1100.54,-262.44 1107.49,-261.64"/>
</g>
<!-- [root] output.status -->
<g id="node5" class="node">
<title>[root] output.status</title>
<polygon fill="none" stroke="black" points="1283.43,-324 1176.43,-324 1176.43,-288 1289.43,-288 1289.43,-318 1283.43,-324"/>
<polyline fill="none" stroke="black" points="1283.43,-324 1283.43,-318 "/>
<polyline fill="none" stroke="black" points="1289.43,-318 1283.43,-318 "/>
<text text-anchor="middle" x="1232.93" y="-302.3" font-family="Times,serif" font-size="14.00">output.status</text>
</g>
<!-- [root] output.status&#45;&gt;[root] hcloud_server.node (expand) -->
<g id="edge9" class="edge">
<title>[root] output.status&#45;&gt;[root] hcloud_server.node (expand)</title>
<path fill="none" stroke="black" d="M1200.64,-287.88C1183.06,-278.55 1161.12,-266.92 1142.3,-256.94"/>
<polygon fill="black" stroke="black" points="1143.82,-253.78 1133.34,-252.19 1140.54,-259.97 1143.82,-253.78"/>
</g>
<!-- [root] output.url -->
<g id="node6" class="node">
<title>[root] output.url</title>
<polygon fill="none" stroke="black" points="2076.43,-324 1993.43,-324 1993.43,-288 2082.43,-288 2082.43,-318 2076.43,-324"/>
<polyline fill="none" stroke="black" points="2076.43,-324 2076.43,-318 "/>
<polyline fill="none" stroke="black" points="2082.43,-318 2076.43,-318 "/>
<text text-anchor="middle" x="2037.93" y="-302.3" font-family="Times,serif" font-size="14.00">output.url</text>
</g>
<!-- [root] output.url&#45;&gt;[root] local.domain_name (expand) -->
<g id="edge10" class="edge">
<title>[root] output.url&#45;&gt;[root] local.domain_name (expand)</title>
<path fill="none" stroke="black" d="M2040.37,-287.66C2042.15,-267.56 2041.59,-234.79 2022.93,-216 2001.03,-193.95 1936.29,-180.99 1872.34,-173.41"/>
<polygon fill="black" stroke="black" points="1872.42,-169.9 1862.09,-172.24 1871.63,-176.86 1872.42,-169.9"/>
</g>
<!-- [root] output.version -->
<g id="node7" class="node">
<title>[root] output.version</title>
<polygon fill="none" stroke="black" points="1992.43,-396 1877.43,-396 1877.43,-360 1998.43,-360 1998.43,-390 1992.43,-396"/>
<polyline fill="none" stroke="black" points="1992.43,-396 1992.43,-390 "/>
<polyline fill="none" stroke="black" points="1998.43,-390 1992.43,-390 "/>
<text text-anchor="middle" x="1937.93" y="-374.3" font-family="Times,serif" font-size="14.00">output.version</text>
</g>
<!-- [root] output.version&#45;&gt;[root] var.project_version -->
<g id="edge11" class="edge">
<title>[root] output.version&#45;&gt;[root] var.project_version</title>
<path fill="none" stroke="black" d="M1937.93,-359.87C1937.93,-335.67 1937.93,-291.21 1937.93,-262.39"/>
<polygon fill="black" stroke="black" points="1941.43,-262.19 1937.93,-252.19 1934.43,-262.19 1941.43,-262.19"/>
</g>
<!-- [root] ovh_domain_zone_record.root (expand) -->
<g id="node8" class="node">
<title>[root] ovh_domain_zone_record.root (expand)</title>
<polygon fill="none" stroke="black" points="585.93,-324 357.93,-324 357.93,-288 585.93,-288 585.93,-324"/>
<text text-anchor="middle" x="471.93" y="-302.3" font-family="Times,serif" font-size="14.00">ovh_domain_zone_record.root</text>
</g>
<!-- [root] ovh_domain_zone_record.root (expand)&#45;&gt;[root] hcloud_server.node (expand) -->
<g id="edge12" class="edge">
<title>[root] ovh_domain_zone_record.root (expand)&#45;&gt;[root] hcloud_server.node (expand)</title>
<path fill="none" stroke="black" d="M586.2,-292.28C709.16,-278.6 902.02,-257.14 1013.46,-244.73"/>
<polygon fill="black" stroke="black" points="1014.1,-248.18 1023.65,-243.6 1013.33,-241.23 1014.1,-248.18"/>
</g>
<!-- [root] provider[&quot;registry.terraform.io/ovh/ovh&quot;] -->
<g id="node11" class="node">
<title>[root] provider[&quot;registry.terraform.io/ovh/ovh&quot;]</title>
<polygon fill="none" stroke="black" points="471.93,-252 188.73,-234 471.93,-216 755.13,-234 471.93,-252"/>
<text text-anchor="middle" x="471.93" y="-230.3" font-family="Times,serif" font-size="14.00">provider[&quot;registry.terraform.io/ovh/ovh&quot;]</text>
</g>
<!-- [root] ovh_domain_zone_record.root (expand)&#45;&gt;[root] provider[&quot;registry.terraform.io/ovh/ovh&quot;] -->
<g id="edge13" class="edge">
<title>[root] ovh_domain_zone_record.root (expand)&#45;&gt;[root] provider[&quot;registry.terraform.io/ovh/ovh&quot;]</title>
<path fill="none" stroke="black" d="M471.93,-287.7C471.93,-279.98 471.93,-270.71 471.93,-262.11"/>
<polygon fill="black" stroke="black" points="475.43,-262.1 471.93,-252.1 468.43,-262.1 475.43,-262.1"/>
</g>
<!-- [root] var.hetzner_token_cloud -->
<g id="node13" class="node">
<title>[root] var.hetzner_token_cloud</title>
<polygon fill="none" stroke="black" points="952.43,-36 769.43,-36 769.43,0 958.43,0 958.43,-30 952.43,-36"/>
<polyline fill="none" stroke="black" points="952.43,-36 952.43,-30 "/>
<polyline fill="none" stroke="black" points="958.43,-30 952.43,-30 "/>
<text text-anchor="middle" x="863.93" y="-14.3" font-family="Times,serif" font-size="14.00">var.hetzner_token_cloud</text>
</g>
<!-- [root] provider[&quot;registry.terraform.io/hetznercloud/hcloud&quot;]&#45;&gt;[root] var.hetzner_token_cloud -->
<g id="edge16" class="edge">
<title>[root] provider[&quot;registry.terraform.io/hetznercloud/hcloud&quot;]&#45;&gt;[root] var.hetzner_token_cloud</title>
<path fill="none" stroke="black" d="M863.93,-71.7C863.93,-63.98 863.93,-54.71 863.93,-46.11"/>
<polygon fill="black" stroke="black" points="867.43,-46.1 863.93,-36.1 860.43,-46.1 867.43,-46.1"/>
</g>
<!-- [root] var.ovh_application_key -->
<g id="node14" class="node">
<title>[root] var.ovh_application_key</title>
<polygon fill="none" stroke="black" points="756.43,-180 577.43,-180 577.43,-144 762.43,-144 762.43,-174 756.43,-180"/>
<polyline fill="none" stroke="black" points="756.43,-180 756.43,-174 "/>
<polyline fill="none" stroke="black" points="762.43,-174 756.43,-174 "/>
<text text-anchor="middle" x="669.93" y="-158.3" font-family="Times,serif" font-size="14.00">var.ovh_application_key</text>
</g>
<!-- [root] provider[&quot;registry.terraform.io/ovh/ovh&quot;]&#45;&gt;[root] var.ovh_application_key -->
<g id="edge18" class="edge">
<title>[root] provider[&quot;registry.terraform.io/ovh/ovh&quot;]&#45;&gt;[root] var.ovh_application_key</title>
<path fill="none" stroke="black" d="M512.95,-218.5C541.59,-208.37 580.23,-194.71 612,-183.48"/>
<polygon fill="black" stroke="black" points="613.36,-186.71 621.62,-180.08 611.03,-180.11 613.36,-186.71"/>
</g>
<!-- [root] var.ovh_application_secret -->
<g id="node15" class="node">
<title>[root] var.ovh_application_secret</title>
<polygon fill="none" stroke="black" points="360.43,-180 161.43,-180 161.43,-144 366.43,-144 366.43,-174 360.43,-180"/>
<polyline fill="none" stroke="black" points="360.43,-180 360.43,-174 "/>
<polyline fill="none" stroke="black" points="366.43,-174 360.43,-174 "/>
<text text-anchor="middle" x="263.93" y="-158.3" font-family="Times,serif" font-size="14.00">var.ovh_application_secret</text>
</g>
<!-- [root] provider[&quot;registry.terraform.io/ovh/ovh&quot;]&#45;&gt;[root] var.ovh_application_secret -->
<g id="edge19" class="edge">
<title>[root] provider[&quot;registry.terraform.io/ovh/ovh&quot;]&#45;&gt;[root] var.ovh_application_secret</title>
<path fill="none" stroke="black" d="M429.33,-218.67C399.04,-208.47 357.93,-194.64 324.27,-183.31"/>
<polygon fill="black" stroke="black" points="325.13,-179.9 314.54,-180.03 322.9,-186.54 325.13,-179.9"/>
</g>
<!-- [root] var.ovh_consumer_key -->
<g id="node16" class="node">
<title>[root] var.ovh_consumer_key</title>
<polygon fill="none" stroke="black" points="553.93,-180 383.93,-180 383.93,-144 559.93,-144 559.93,-174 553.93,-180"/>
<polyline fill="none" stroke="black" points="553.93,-180 553.93,-174 "/>
<polyline fill="none" stroke="black" points="559.93,-174 553.93,-174 "/>
<text text-anchor="middle" x="471.93" y="-158.3" font-family="Times,serif" font-size="14.00">var.ovh_consumer_key</text>
</g>
<!-- [root] provider[&quot;registry.terraform.io/ovh/ovh&quot;]&#45;&gt;[root] var.ovh_consumer_key -->
<g id="edge20" class="edge">
<title>[root] provider[&quot;registry.terraform.io/ovh/ovh&quot;]&#45;&gt;[root] var.ovh_consumer_key</title>
<path fill="none" stroke="black" d="M471.93,-215.7C471.93,-207.98 471.93,-198.71 471.93,-190.11"/>
<polygon fill="black" stroke="black" points="475.43,-190.1 471.93,-180.1 468.43,-190.1 475.43,-190.1"/>
</g>
<!-- [root] provider[&quot;registry.terraform.io/hashicorp/null&quot;] (close) -->
<g id="node19" class="node">
<title>[root] provider[&quot;registry.terraform.io/hashicorp/null&quot;] (close)</title>
<ellipse fill="none" stroke="black" cx="1567.93" cy="-378" rx="291.65" ry="18"/>
<text text-anchor="middle" x="1567.93" y="-374.3" font-family="Times,serif" font-size="14.00">[root] provider[&quot;registry.terraform.io/hashicorp/null&quot;] (close)</text>
</g>
<!-- [root] provider[&quot;registry.terraform.io/hashicorp/null&quot;] (close)&#45;&gt;[root] null_resource.deployment (expand) -->
<g id="edge14" class="edge">
<title>[root] provider[&quot;registry.terraform.io/hashicorp/null&quot;] (close)&#45;&gt;[root] null_resource.deployment (expand)</title>
<path fill="none" stroke="black" d="M1561.99,-359.7C1559.32,-351.9 1556.1,-342.51 1553.13,-333.83"/>
<polygon fill="black" stroke="black" points="1556.35,-332.43 1549.79,-324.1 1549.72,-334.7 1556.35,-332.43"/>
</g>
<!-- [root] provider[&quot;registry.terraform.io/hetznercloud/hcloud&quot;] (close) -->
<g id="node20" class="node">
<title>[root] provider[&quot;registry.terraform.io/hetznercloud/hcloud&quot;] (close)</title>
<ellipse fill="none" stroke="black" cx="861.93" cy="-378" rx="319.54" ry="18"/>
<text text-anchor="middle" x="861.93" y="-374.3" font-family="Times,serif" font-size="14.00">[root] provider[&quot;registry.terraform.io/hetznercloud/hcloud&quot;] (close)</text>
</g>
<!-- [root] provider[&quot;registry.terraform.io/hetznercloud/hcloud&quot;] (close)&#45;&gt;[root] hcloud_server.node (expand) -->
<g id="edge15" class="edge">
<title>[root] provider[&quot;registry.terraform.io/hetznercloud/hcloud&quot;] (close)&#45;&gt;[root] hcloud_server.node (expand)</title>
<path fill="none" stroke="black" d="M890.76,-359.87C933.91,-334.23 1015.34,-285.85 1063.18,-257.43"/>
<polygon fill="black" stroke="black" points="1065.19,-260.31 1072,-252.19 1061.61,-254.29 1065.19,-260.31"/>
</g>
<!-- [root] provider[&quot;registry.terraform.io/ovh/ovh&quot;] (close) -->
<g id="node21" class="node">
<title>[root] provider[&quot;registry.terraform.io/ovh/ovh&quot;] (close)</title>
<ellipse fill="none" stroke="black" cx="261.93" cy="-378" rx="261.85" ry="18"/>
<text text-anchor="middle" x="261.93" y="-374.3" font-family="Times,serif" font-size="14.00">[root] provider[&quot;registry.terraform.io/ovh/ovh&quot;] (close)</text>
</g>
<!-- [root] provider[&quot;registry.terraform.io/ovh/ovh&quot;] (close)&#45;&gt;[root] ovh_domain_zone_record.root (expand) -->
<g id="edge17" class="edge">
<title>[root] provider[&quot;registry.terraform.io/ovh/ovh&quot;] (close)&#45;&gt;[root] ovh_domain_zone_record.root (expand)</title>
<path fill="none" stroke="black" d="M311.96,-360.32C341.75,-350.39 379.77,-337.72 411.27,-327.22"/>
<polygon fill="black" stroke="black" points="412.44,-330.52 420.82,-324.04 410.22,-323.88 412.44,-330.52"/>
</g>
<!-- [root] root -->
<g id="node22" class="node">
<title>[root] root</title>
<ellipse fill="none" stroke="black" cx="1247.93" cy="-450" rx="58.49" ry="18"/>
<text text-anchor="middle" x="1247.93" y="-446.3" font-family="Times,serif" font-size="14.00">[root] root</text>
</g>
<!-- [root] root&#45;&gt;[root] output.ip -->
<g id="edge21" class="edge">
<title>[root] root&#45;&gt;[root] output.ip</title>
<path fill="none" stroke="black" d="M1239.89,-432.08C1230.22,-412.97 1212.55,-381.71 1190.93,-360 1179.25,-348.28 1164.56,-337.79 1150.84,-329.29"/>
<polygon fill="black" stroke="black" points="1152.39,-326.14 1142.01,-324.01 1148.8,-332.15 1152.39,-326.14"/>
</g>
<!-- [root] root&#45;&gt;[root] output.status -->
<g id="edge22" class="edge">
<title>[root] root&#45;&gt;[root] output.status</title>
<path fill="none" stroke="black" d="M1246.12,-431.87C1243.56,-407.67 1238.86,-363.21 1235.82,-334.39"/>
<polygon fill="black" stroke="black" points="1239.27,-333.77 1234.74,-324.19 1232.31,-334.5 1239.27,-333.77"/>
</g>
<!-- [root] root&#45;&gt;[root] output.url -->
<g id="edge23" class="edge">
<title>[root] root&#45;&gt;[root] output.url</title>
<path fill="none" stroke="black" d="M1306.5,-448.6C1475.06,-446.95 1952.87,-438.52 2007.93,-396 2026.72,-381.49 2033.84,-354.69 2036.49,-334.28"/>
<polygon fill="black" stroke="black" points="2039.97,-334.59 2037.5,-324.28 2033.01,-333.88 2039.97,-334.59"/>
</g>
<!-- [root] root&#45;&gt;[root] output.version -->
<g id="edge24" class="edge">
<title>[root] root&#45;&gt;[root] output.version</title>
<path fill="none" stroke="black" d="M1305.66,-447.09C1414.11,-442.84 1655.7,-430.28 1867.04,-396.18"/>
<polygon fill="black" stroke="black" points="1867.78,-399.6 1877.08,-394.54 1866.65,-392.7 1867.78,-399.6"/>
</g>
<!-- [root] root&#45;&gt;[root] provider[&quot;registry.terraform.io/hashicorp/null&quot;] (close) -->
<g id="edge25" class="edge">
<title>[root] root&#45;&gt;[root] provider[&quot;registry.terraform.io/hashicorp/null&quot;] (close)</title>
<path fill="none" stroke="black" d="M1294.12,-438.9C1343.3,-428.14 1422.24,-410.87 1482.75,-397.63"/>
<polygon fill="black" stroke="black" points="1483.66,-401.02 1492.68,-395.46 1482.16,-394.18 1483.66,-401.02"/>
</g>
<!-- [root] root&#45;&gt;[root] provider[&quot;registry.terraform.io/hetznercloud/hcloud&quot;] (close) -->
<g id="edge26" class="edge">
<title>[root] root&#45;&gt;[root] provider[&quot;registry.terraform.io/hetznercloud/hcloud&quot;] (close)</title>
<path fill="none" stroke="black" d="M1198.65,-440.06C1139.22,-429.29 1037.87,-410.91 961.84,-397.12"/>
<polygon fill="black" stroke="black" points="962.23,-393.63 951.76,-395.29 960.98,-400.52 962.23,-393.63"/>
</g>
<!-- [root] root&#45;&gt;[root] provider[&quot;registry.terraform.io/ovh/ovh&quot;] (close) -->
<g id="edge27" class="edge">
<title>[root] root&#45;&gt;[root] provider[&quot;registry.terraform.io/ovh/ovh&quot;] (close)</title>
<path fill="none" stroke="black" d="M1191.37,-444.99C1049.75,-434.93 674.88,-408.32 446.82,-392.13"/>
<polygon fill="black" stroke="black" points="446.97,-388.63 436.75,-391.41 446.48,-395.61 446.97,-388.63"/>
</g>
</g>
</svg>
