<?xml version="1.0" encoding="UTF-8" standalone="no"?>
<!DOCTYPE svg PUBLIC "-//W3C//DTD SVG 1.1//EN"
 "http://www.w3.org/Graphics/SVG/1.1/DTD/svg11.dtd">
<!-- Generated by graphviz version 2.43.0 (0)
 -->
<!-- Title: %3 Pages: 1 -->
<svg width="2652pt" height="548pt"
 viewBox="0.00 0.00 2652.16 548.00" xmlns="http://www.w3.org/2000/svg" xmlns:xlink="http://www.w3.org/1999/xlink">
<g id="graph0" class="graph" transform="scale(1 1) rotate(0) translate(4 544)">
<title>%3</title>
<polygon fill="white" stroke="transparent" points="-4,4 -4,-544 2648.16,-544 2648.16,4 -4,4"/>
<!-- [root] data.hcloud_ssh_key.ssh_key (expand) -->
<g id="node1" class="node">
<title>[root] data.hcloud_ssh_key.ssh_key (expand)</title>
<polygon fill="none" stroke="black" points="1593.93,-252 1373.93,-252 1373.93,-216 1593.93,-216 1593.93,-252"/>
<text text-anchor="middle" x="1483.93" y="-230.3" font-family="Times,serif" font-size="14.00">data.hcloud_ssh_key.ssh_key</text>
</g>
<!-- [root] provider[&quot;registry.terraform.io/hetznercloud/hcloud&quot;] -->
<g id="node13" class="node">
<title>[root] provider[&quot;registry.terraform.io/hetznercloud/hcloud&quot;]</title>
<polygon fill="none" stroke="black" points="1274.93,-108 910.12,-90 1274.93,-72 1639.75,-90 1274.93,-108"/>
<text text-anchor="middle" x="1274.93" y="-86.3" font-family="Times,serif" font-size="14.00">provider[&quot;registry.terraform.io/hetznercloud/hcloud&quot;]</text>
</g>
<!-- [root] data.hcloud_ssh_key.ssh_key (expand)&#45;&gt;[root] provider[&quot;registry.terraform.io/hetznercloud/hcloud&quot;] -->
<g id="edge1" class="edge">
<title>[root] data.hcloud_ssh_key.ssh_key (expand)&#45;&gt;[root] provider[&quot;registry.terraform.io/hetznercloud/hcloud&quot;]</title>
<path fill="none" stroke="black" d="M1447.31,-215.77C1427.94,-206.12 1404.07,-193.37 1383.93,-180 1353.61,-159.87 1321.67,-133.03 1300.26,-114.11"/>
<polygon fill="black" stroke="black" points="1302.39,-111.32 1292.6,-107.27 1297.73,-116.54 1302.39,-111.32"/>
</g>
<!-- [root] var.hetzner_fingerprint -->
<g id="node16" class="node">
<title>[root] var.hetzner_fingerprint</title>
<polygon fill="none" stroke="black" points="1568.93,-180 1392.93,-180 1392.93,-144 1574.93,-144 1574.93,-174 1568.93,-180"/>
<polyline fill="none" stroke="black" points="1568.93,-180 1568.93,-174 "/>
<polyline fill="none" stroke="black" points="1574.93,-174 1568.93,-174 "/>
<text text-anchor="middle" x="1483.93" y="-158.3" font-family="Times,serif" font-size="14.00">var.hetzner_fingerprint</text>
</g>
<!-- [root] data.hcloud_ssh_key.ssh_key (expand)&#45;&gt;[root] var.hetzner_fingerprint -->
<g id="edge2" class="edge">
<title>[root] data.hcloud_ssh_key.ssh_key (expand)&#45;&gt;[root] var.hetzner_fingerprint</title>
<path fill="none" stroke="black" d="M1483.93,-215.7C1483.93,-207.98 1483.93,-198.71 1483.93,-190.11"/>
<polygon fill="black" stroke="black" points="1487.43,-190.1 1483.93,-180.1 1480.43,-190.1 1487.43,-190.1"/>
</g>
<!-- [root] hcloud_network.private (expand) -->
<g id="node2" class="node">
<title>[root] hcloud_network.private (expand)</title>
<polygon fill="none" stroke="black" points="1307.43,-180 1122.43,-180 1122.43,-144 1307.43,-144 1307.43,-180"/>
<text text-anchor="middle" x="1214.93" y="-158.3" font-family="Times,serif" font-size="14.00">hcloud_network.private</text>
</g>
<!-- [root] hcloud_network.private (expand)&#45;&gt;[root] provider[&quot;registry.terraform.io/hetznercloud/hcloud&quot;] -->
<g id="edge3" class="edge">
<title>[root] hcloud_network.private (expand)&#45;&gt;[root] provider[&quot;registry.terraform.io/hetznercloud/hcloud&quot;]</title>
<path fill="none" stroke="black" d="M1229.77,-143.7C1237.07,-135.18 1245.99,-124.76 1253.98,-115.45"/>
<polygon fill="black" stroke="black" points="1256.84,-117.49 1260.69,-107.62 1251.52,-112.94 1256.84,-117.49"/>
</g>
<!-- [root] hcloud_network_subnet.network&#45;subnet (expand) -->
<g id="node3" class="node">
<title>[root] hcloud_network_subnet.network&#45;subnet (expand)</title>
<polygon fill="none" stroke="black" points="1355.43,-252 1054.43,-252 1054.43,-216 1355.43,-216 1355.43,-252"/>
<text text-anchor="middle" x="1204.93" y="-230.3" font-family="Times,serif" font-size="14.00">hcloud_network_subnet.network&#45;subnet</text>
</g>
<!-- [root] hcloud_network_subnet.network&#45;subnet (expand)&#45;&gt;[root] hcloud_network.private (expand) -->
<g id="edge4" class="edge">
<title>[root] hcloud_network_subnet.network&#45;subnet (expand)&#45;&gt;[root] hcloud_network.private (expand)</title>
<path fill="none" stroke="black" d="M1207.41,-215.7C1208.51,-207.98 1209.83,-198.71 1211.06,-190.11"/>
<polygon fill="black" stroke="black" points="1214.54,-190.5 1212.49,-180.1 1207.61,-189.51 1214.54,-190.5"/>
</g>
<!-- [root] hcloud_server.cluster (expand) -->
<g id="node4" class="node">
<title>[root] hcloud_server.cluster (expand)</title>
<polygon fill="none" stroke="black" points="1568.43,-324 1399.43,-324 1399.43,-288 1568.43,-288 1568.43,-324"/>
<text text-anchor="middle" x="1483.93" y="-302.3" font-family="Times,serif" font-size="14.00">hcloud_server.cluster</text>
</g>
<!-- [root] hcloud_server.cluster (expand)&#45;&gt;[root] data.hcloud_ssh_key.ssh_key (expand) -->
<g id="edge5" class="edge">
<title>[root] hcloud_server.cluster (expand)&#45;&gt;[root] data.hcloud_ssh_key.ssh_key (expand)</title>
<path fill="none" stroke="black" d="M1483.93,-287.7C1483.93,-279.98 1483.93,-270.71 1483.93,-262.11"/>
<polygon fill="black" stroke="black" points="1487.43,-262.1 1483.93,-252.1 1480.43,-262.1 1487.43,-262.1"/>
</g>
<!-- [root] hcloud_server.cluster (expand)&#45;&gt;[root] hcloud_network_subnet.network&#45;subnet (expand) -->
<g id="edge6" class="edge">
<title>[root] hcloud_server.cluster (expand)&#45;&gt;[root] hcloud_network_subnet.network&#45;subnet (expand)</title>
<path fill="none" stroke="black" d="M1416.04,-287.97C1375.87,-277.89 1324.83,-265.08 1283.01,-254.59"/>
<polygon fill="black" stroke="black" points="1283.68,-251.15 1273.13,-252.11 1281.98,-257.94 1283.68,-251.15"/>
</g>
<!-- [root] local.domain_name (expand) -->
<g id="node21" class="node">
<title>[root] local.domain_name (expand)</title>
<ellipse fill="none" stroke="black" cx="170.93" cy="-234" rx="170.87" ry="18"/>
<text text-anchor="middle" x="170.93" y="-230.3" font-family="Times,serif" font-size="14.00">[root] local.domain_name (expand)</text>
</g>
<!-- [root] hcloud_server.cluster (expand)&#45;&gt;[root] local.domain_name (expand) -->
<g id="edge7" class="edge">
<title>[root] hcloud_server.cluster (expand)&#45;&gt;[root] local.domain_name (expand)</title>
<path fill="none" stroke="black" d="M1399.13,-301.06C1147.46,-289.37 419.1,-255.42 367.93,-252 347.53,-250.64 325.96,-248.99 304.86,-247.26"/>
<polygon fill="black" stroke="black" points="305.14,-243.77 294.88,-246.43 304.56,-250.74 305.14,-243.77"/>
</g>
<!-- [root] local.nodes (expand) -->
<g id="node22" class="node">
<title>[root] local.nodes (expand)</title>
<ellipse fill="none" stroke="black" cx="1746.93" cy="-234" rx="134.58" ry="18"/>
<text text-anchor="middle" x="1746.93" y="-230.3" font-family="Times,serif" font-size="14.00">[root] local.nodes (expand)</text>
</g>
<!-- [root] hcloud_server.cluster (expand)&#45;&gt;[root] local.nodes (expand) -->
<g id="edge8" class="edge">
<title>[root] hcloud_server.cluster (expand)&#45;&gt;[root] local.nodes (expand)</title>
<path fill="none" stroke="black" d="M1547.94,-287.97C1587.83,-277.35 1639.09,-263.7 1679.6,-252.92"/>
<polygon fill="black" stroke="black" points="1680.62,-256.27 1689.38,-250.32 1678.82,-249.51 1680.62,-256.27"/>
</g>
<!-- [root] null_resource.deployment (expand) -->
<g id="node5" class="node">
<title>[root] null_resource.deployment (expand)</title>
<polygon fill="none" stroke="black" points="879.43,-396 678.43,-396 678.43,-360 879.43,-360 879.43,-396"/>
<text text-anchor="middle" x="778.93" y="-374.3" font-family="Times,serif" font-size="14.00">null_resource.deployment</text>
</g>
<!-- [root] null_resource.deployment (expand)&#45;&gt;[root] hcloud_server.cluster (expand) -->
<g id="edge9" class="edge">
<title>[root] null_resource.deployment (expand)&#45;&gt;[root] hcloud_server.cluster (expand)</title>
<path fill="none" stroke="black" d="M879.57,-367.01C1015.56,-353.51 1256.22,-329.61 1389.14,-316.41"/>
<polygon fill="black" stroke="black" points="1389.7,-319.87 1399.3,-315.4 1389,-312.91 1389.7,-319.87"/>
</g>
<!-- [root] provider[&quot;registry.terraform.io/hashicorp/null&quot;] -->
<g id="node11" class="node">
<title>[root] provider[&quot;registry.terraform.io/hashicorp/null&quot;]</title>
<polygon fill="none" stroke="black" points="641.93,-324 317.51,-306 641.93,-288 966.36,-306 641.93,-324"/>
<text text-anchor="middle" x="641.93" y="-302.3" font-family="Times,serif" font-size="14.00">provider[&quot;registry.terraform.io/hashicorp/null&quot;]</text>
</g>
<!-- [root] null_resource.deployment (expand)&#45;&gt;[root] provider[&quot;registry.terraform.io/hashicorp/null&quot;] -->
<g id="edge10" class="edge">
<title>[root] null_resource.deployment (expand)&#45;&gt;[root] provider[&quot;registry.terraform.io/hashicorp/null&quot;]</title>
<path fill="none" stroke="black" d="M745.42,-359.88C726.05,-349.98 701.57,-337.47 681.29,-327.11"/>
<polygon fill="black" stroke="black" points="682.8,-323.95 672.3,-322.51 679.61,-330.18 682.8,-323.95"/>
</g>
<!-- [root] time_sleep.init (expand) -->
<g id="node15" class="node">
<title>[root] time_sleep.init (expand)</title>
<polygon fill="none" stroke="black" points="1105.93,-324 983.93,-324 983.93,-288 1105.93,-288 1105.93,-324"/>
<text text-anchor="middle" x="1044.93" y="-302.3" font-family="Times,serif" font-size="14.00">time_sleep.init</text>
</g>
<!-- [root] null_resource.deployment (expand)&#45;&gt;[root] time_sleep.init (expand) -->
<g id="edge11" class="edge">
<title>[root] null_resource.deployment (expand)&#45;&gt;[root] time_sleep.init (expand)</title>
<path fill="none" stroke="black" d="M843.67,-359.97C883.02,-349.61 933.31,-336.37 973.78,-325.73"/>
<polygon fill="black" stroke="black" points="974.8,-329.08 983.58,-323.15 973.02,-322.31 974.8,-329.08"/>
</g>
<!-- [root] output.ip -->
<g id="node6" class="node">
<title>[root] output.ip</title>
<polygon fill="none" stroke="black" points="1402.93,-396 1326.93,-396 1326.93,-360 1408.93,-360 1408.93,-390 1402.93,-396"/>
<polyline fill="none" stroke="black" points="1402.93,-396 1402.93,-390 "/>
<polyline fill="none" stroke="black" points="1408.93,-390 1402.93,-390 "/>
<text text-anchor="middle" x="1367.93" y="-374.3" font-family="Times,serif" font-size="14.00">output.ip</text>
</g>
<!-- [root] output.ip&#45;&gt;[root] hcloud_server.cluster (expand) -->
<g id="edge12" class="edge">
<title>[root] output.ip&#45;&gt;[root] hcloud_server.cluster (expand)</title>
<path fill="none" stroke="black" d="M1396.31,-359.88C1411.48,-350.72 1430.34,-339.34 1446.67,-329.48"/>
<polygon fill="black" stroke="black" points="1448.7,-332.35 1455.45,-324.19 1445.08,-326.36 1448.7,-332.35"/>
</g>
<!-- [root] output.status -->
<g id="node7" class="node">
<title>[root] output.status</title>
<polygon fill="none" stroke="black" points="1534.43,-396 1427.43,-396 1427.43,-360 1540.43,-360 1540.43,-390 1534.43,-396"/>
<polyline fill="none" stroke="black" points="1534.43,-396 1534.43,-390 "/>
<polyline fill="none" stroke="black" points="1540.43,-390 1534.43,-390 "/>
<text text-anchor="middle" x="1483.93" y="-374.3" font-family="Times,serif" font-size="14.00">output.status</text>
</g>
<!-- [root] output.status&#45;&gt;[root] hcloud_server.cluster (expand) -->
<g id="edge13" class="edge">
<title>[root] output.status&#45;&gt;[root] hcloud_server.cluster (expand)</title>
<path fill="none" stroke="black" d="M1483.93,-359.7C1483.93,-351.98 1483.93,-342.71 1483.93,-334.11"/>
<polygon fill="black" stroke="black" points="1487.43,-334.1 1483.93,-324.1 1480.43,-334.1 1487.43,-334.1"/>
</g>
<!-- [root] output.url -->
<g id="node8" class="node">
<title>[root] output.url</title>
<polygon fill="none" stroke="black" points="175.43,-324 92.43,-324 92.43,-288 181.43,-288 181.43,-318 175.43,-324"/>
<polyline fill="none" stroke="black" points="175.43,-324 175.43,-318 "/>
<polyline fill="none" stroke="black" points="181.43,-318 175.43,-318 "/>
<text text-anchor="middle" x="136.93" y="-302.3" font-family="Times,serif" font-size="14.00">output.url</text>
</g>
<!-- [root] output.url&#45;&gt;[root] local.domain_name (expand) -->
<g id="edge14" class="edge">
<title>[root] output.url&#45;&gt;[root] local.domain_name (expand)</title>
<path fill="none" stroke="black" d="M145.34,-287.7C149.21,-279.73 153.89,-270.1 158.18,-261.26"/>
<polygon fill="black" stroke="black" points="161.41,-262.63 162.63,-252.1 155.11,-259.57 161.41,-262.63"/>
</g>
<!-- [root] ovh_domain_zone_record.node (expand) -->
<g id="node9" class="node">
<title>[root] ovh_domain_zone_record.node (expand)</title>
<polygon fill="none" stroke="black" points="2194.43,-396 1961.43,-396 1961.43,-360 2194.43,-360 2194.43,-396"/>
<text text-anchor="middle" x="2077.93" y="-374.3" font-family="Times,serif" font-size="14.00">ovh_domain_zone_record.node</text>
</g>
<!-- [root] ovh_domain_zone_record.node (expand)&#45;&gt;[root] hcloud_server.cluster (expand) -->
<g id="edge15" class="edge">
<title>[root] ovh_domain_zone_record.node (expand)&#45;&gt;[root] hcloud_server.cluster (expand)</title>
<path fill="none" stroke="black" d="M1961.29,-363.25C1849.46,-350.08 1682.73,-330.43 1578.82,-318.18"/>
<polygon fill="black" stroke="black" points="1578.99,-314.68 1568.65,-316.98 1578.17,-321.63 1578.99,-314.68"/>
</g>
<!-- [root] provider[&quot;registry.terraform.io/ovh/ovh&quot;].eu -->
<g id="node14" class="node">
<title>[root] provider[&quot;registry.terraform.io/ovh/ovh&quot;].eu</title>
<polygon fill="none" stroke="black" points="2285.93,-324 1983.63,-306 2285.93,-288 2588.24,-306 2285.93,-324"/>
<text text-anchor="middle" x="2285.93" y="-302.3" font-family="Times,serif" font-size="14.00">provider[&quot;registry.terraform.io/ovh/ovh&quot;].eu</text>
</g>
<!-- [root] ovh_domain_zone_record.node (expand)&#45;&gt;[root] provider[&quot;registry.terraform.io/ovh/ovh&quot;].eu -->
<g id="edge16" class="edge">
<title>[root] ovh_domain_zone_record.node (expand)&#45;&gt;[root] provider[&quot;registry.terraform.io/ovh/ovh&quot;].eu</title>
<path fill="none" stroke="black" d="M2128.55,-359.97C2160.26,-349.29 2201.06,-335.56 2233.17,-324.76"/>
<polygon fill="black" stroke="black" points="2234.48,-328.01 2242.84,-321.5 2232.25,-321.38 2234.48,-328.01"/>
</g>
<!-- [root] ovh_domain_zone_record.root (expand) -->
<g id="node10" class="node">
<title>[root] ovh_domain_zone_record.root (expand)</title>
<polygon fill="none" stroke="black" points="2440.93,-396 2212.93,-396 2212.93,-360 2440.93,-360 2440.93,-396"/>
<text text-anchor="middle" x="2326.93" y="-374.3" font-family="Times,serif" font-size="14.00">ovh_domain_zone_record.root</text>
</g>
<!-- [root] ovh_domain_zone_record.root (expand)&#45;&gt;[root] hcloud_server.cluster (expand) -->
<g id="edge17" class="edge">
<title>[root] ovh_domain_zone_record.root (expand)&#45;&gt;[root] hcloud_server.cluster (expand)</title>
<path fill="none" stroke="black" d="M2212.78,-361.08C2209.46,-360.7 2206.18,-360.34 2202.93,-360 1979.64,-336.49 1716.24,-319.9 1578.58,-312.08"/>
<polygon fill="black" stroke="black" points="1578.67,-308.58 1568.49,-311.51 1578.27,-315.57 1578.67,-308.58"/>
</g>
<!-- [root] ovh_domain_zone_record.root (expand)&#45;&gt;[root] provider[&quot;registry.terraform.io/ovh/ovh&quot;].eu -->
<g id="edge18" class="edge">
<title>[root] ovh_domain_zone_record.root (expand)&#45;&gt;[root] provider[&quot;registry.terraform.io/ovh/ovh&quot;].eu</title>
<path fill="none" stroke="black" d="M2316.8,-359.7C2311.96,-351.44 2306.08,-341.39 2300.75,-332.3"/>
<polygon fill="black" stroke="black" points="2303.74,-330.48 2295.67,-323.62 2297.7,-334.02 2303.74,-330.48"/>
</g>
<!-- [root] provider[&quot;registry.terraform.io/hashicorp/time&quot;] -->
<g id="node12" class="node">
<title>[root] provider[&quot;registry.terraform.io/hashicorp/time&quot;]</title>
<polygon fill="none" stroke="black" points="706.93,-252 376.98,-234 706.93,-216 1036.89,-234 706.93,-252"/>
<text text-anchor="middle" x="706.93" y="-230.3" font-family="Times,serif" font-size="14.00">provider[&quot;registry.terraform.io/hashicorp/time&quot;]</text>
</g>
<!-- [root] var.hetzner_token_cloud -->
<g id="node17" class="node">
<title>[root] var.hetzner_token_cloud</title>
<polygon fill="none" stroke="black" points="1363.43,-36 1180.43,-36 1180.43,0 1369.43,0 1369.43,-30 1363.43,-36"/>
<polyline fill="none" stroke="black" points="1363.43,-36 1363.43,-30 "/>
<polyline fill="none" stroke="black" points="1369.43,-30 1363.43,-30 "/>
<text text-anchor="middle" x="1274.93" y="-14.3" font-family="Times,serif" font-size="14.00">var.hetzner_token_cloud</text>
</g>
<!-- [root] provider[&quot;registry.terraform.io/hetznercloud/hcloud&quot;]&#45;&gt;[root] var.hetzner_token_cloud -->
<g id="edge22" class="edge">
<title>[root] provider[&quot;registry.terraform.io/hetznercloud/hcloud&quot;]&#45;&gt;[root] var.hetzner_token_cloud</title>
<path fill="none" stroke="black" d="M1274.93,-71.7C1274.93,-63.98 1274.93,-54.71 1274.93,-46.11"/>
<polygon fill="black" stroke="black" points="1278.43,-46.1 1274.93,-36.1 1271.43,-46.1 1278.43,-46.1"/>
</g>
<!-- [root] var.ovh_application_key -->
<g id="node18" class="node">
<title>[root] var.ovh_application_key</title>
<polygon fill="none" stroke="black" points="2159.43,-252 1980.43,-252 1980.43,-216 2165.43,-216 2165.43,-246 2159.43,-252"/>
<polyline fill="none" stroke="black" points="2159.43,-252 2159.43,-246 "/>
<polyline fill="none" stroke="black" points="2165.43,-246 2159.43,-246 "/>
<text text-anchor="middle" x="2072.93" y="-230.3" font-family="Times,serif" font-size="14.00">var.ovh_application_key</text>
</g>
<!-- [root] provider[&quot;registry.terraform.io/ovh/ovh&quot;].eu&#45;&gt;[root] var.ovh_application_key -->
<g id="edge25" class="edge">
<title>[root] provider[&quot;registry.terraform.io/ovh/ovh&quot;].eu&#45;&gt;[root] var.ovh_application_key</title>
<path fill="none" stroke="black" d="M2242.06,-290.58C2211.13,-280.42 2169.28,-266.66 2134.95,-255.38"/>
<polygon fill="black" stroke="black" points="2135.61,-251.91 2125.02,-252.12 2133.43,-258.57 2135.61,-251.91"/>
</g>
<!-- [root] var.ovh_application_secret -->
<g id="node19" class="node">
<title>[root] var.ovh_application_secret</title>
<polygon fill="none" stroke="black" points="2382.43,-252 2183.43,-252 2183.43,-216 2388.43,-216 2388.43,-246 2382.43,-252"/>
<polyline fill="none" stroke="black" points="2382.43,-252 2382.43,-246 "/>
<polyline fill="none" stroke="black" points="2388.43,-246 2382.43,-246 "/>
<text text-anchor="middle" x="2285.93" y="-230.3" font-family="Times,serif" font-size="14.00">var.ovh_application_secret</text>
</g>
<!-- [root] provider[&quot;registry.terraform.io/ovh/ovh&quot;].eu&#45;&gt;[root] var.ovh_application_secret -->
<g id="edge26" class="edge">
<title>[root] provider[&quot;registry.terraform.io/ovh/ovh&quot;].eu&#45;&gt;[root] var.ovh_application_secret</title>
<path fill="none" stroke="black" d="M2285.93,-287.7C2285.93,-279.98 2285.93,-270.71 2285.93,-262.11"/>
<polygon fill="black" stroke="black" points="2289.43,-262.1 2285.93,-252.1 2282.43,-262.1 2289.43,-262.1"/>
</g>
<!-- [root] var.ovh_consumer_key -->
<g id="node20" class="node">
<title>[root] var.ovh_consumer_key</title>
<polygon fill="none" stroke="black" points="2575.93,-252 2405.93,-252 2405.93,-216 2581.93,-216 2581.93,-246 2575.93,-252"/>
<polyline fill="none" stroke="black" points="2575.93,-252 2575.93,-246 "/>
<polyline fill="none" stroke="black" points="2581.93,-246 2575.93,-246 "/>
<text text-anchor="middle" x="2493.93" y="-230.3" font-family="Times,serif" font-size="14.00">var.ovh_consumer_key</text>
</g>
<!-- [root] provider[&quot;registry.terraform.io/ovh/ovh&quot;].eu&#45;&gt;[root] var.ovh_consumer_key -->
<g id="edge27" class="edge">
<title>[root] provider[&quot;registry.terraform.io/ovh/ovh&quot;].eu&#45;&gt;[root] var.ovh_consumer_key</title>
<path fill="none" stroke="black" d="M2329.03,-290.5C2359.25,-280.33 2400.06,-266.59 2433.52,-255.33"/>
<polygon fill="black" stroke="black" points="2434.83,-258.58 2443.19,-252.08 2432.6,-251.95 2434.83,-258.58"/>
</g>
<!-- [root] time_sleep.init (expand)&#45;&gt;[root] hcloud_network_subnet.network&#45;subnet (expand) -->
<g id="edge35" class="edge">
<title>[root] time_sleep.init (expand)&#45;&gt;[root] hcloud_network_subnet.network&#45;subnet (expand)</title>
<path fill="none" stroke="black" d="M1084.08,-287.88C1105.95,-278.31 1133.39,-266.3 1156.6,-256.15"/>
<polygon fill="black" stroke="black" points="1158.16,-259.28 1165.92,-252.07 1155.36,-252.87 1158.16,-259.28"/>
</g>
<!-- [root] time_sleep.init (expand)&#45;&gt;[root] provider[&quot;registry.terraform.io/hashicorp/time&quot;] -->
<g id="edge36" class="edge">
<title>[root] time_sleep.init (expand)&#45;&gt;[root] provider[&quot;registry.terraform.io/hashicorp/time&quot;]</title>
<path fill="none" stroke="black" d="M983.89,-290.01C980.86,-289.32 977.87,-288.65 974.93,-288 912.38,-274.23 841.25,-260.24 787.99,-250.09"/>
<polygon fill="black" stroke="black" points="788.4,-246.6 777.92,-248.18 787.09,-253.48 788.4,-246.6"/>
</g>
<!-- [root] provider[&quot;registry.terraform.io/hashicorp/null&quot;] (close) -->
<g id="node23" class="node">
<title>[root] provider[&quot;registry.terraform.io/hashicorp/null&quot;] (close)</title>
<ellipse fill="none" stroke="black" cx="439.93" cy="-450" rx="291.65" ry="18"/>
<text text-anchor="middle" x="439.93" y="-446.3" font-family="Times,serif" font-size="14.00">[root] provider[&quot;registry.terraform.io/hashicorp/null&quot;] (close)</text>
</g>
<!-- [root] provider[&quot;registry.terraform.io/hashicorp/null&quot;] (close)&#45;&gt;[root] null_resource.deployment (expand) -->
<g id="edge19" class="edge">
<title>[root] provider[&quot;registry.terraform.io/hashicorp/null&quot;] (close)&#45;&gt;[root] null_resource.deployment (expand)</title>
<path fill="none" stroke="black" d="M519.42,-432.59C569.42,-422.26 634.16,-408.9 686.46,-398.09"/>
<polygon fill="black" stroke="black" points="687.33,-401.49 696.41,-396.04 685.91,-394.63 687.33,-401.49"/>
</g>
<!-- [root] provider[&quot;registry.terraform.io/hashicorp/time&quot;] (close) -->
<g id="node24" class="node">
<title>[root] provider[&quot;registry.terraform.io/hashicorp/time&quot;] (close)</title>
<ellipse fill="none" stroke="black" cx="1044.93" cy="-450" rx="295.15" ry="18"/>
<text text-anchor="middle" x="1044.93" y="-446.3" font-family="Times,serif" font-size="14.00">[root] provider[&quot;registry.terraform.io/hashicorp/time&quot;] (close)</text>
</g>
<!-- [root] provider[&quot;registry.terraform.io/hashicorp/time&quot;] (close)&#45;&gt;[root] time_sleep.init (expand) -->
<g id="edge20" class="edge">
<title>[root] provider[&quot;registry.terraform.io/hashicorp/time&quot;] (close)&#45;&gt;[root] time_sleep.init (expand)</title>
<path fill="none" stroke="black" d="M1044.93,-431.87C1044.93,-407.67 1044.93,-363.21 1044.93,-334.39"/>
<polygon fill="black" stroke="black" points="1048.43,-334.19 1044.93,-324.19 1041.43,-334.19 1048.43,-334.19"/>
</g>
<!-- [root] provider[&quot;registry.terraform.io/hetznercloud/hcloud&quot;] (close) -->
<g id="node25" class="node">
<title>[root] provider[&quot;registry.terraform.io/hetznercloud/hcloud&quot;] (close)</title>
<ellipse fill="none" stroke="black" cx="1753.93" cy="-450" rx="319.54" ry="18"/>
<text text-anchor="middle" x="1753.93" y="-446.3" font-family="Times,serif" font-size="14.00">[root] provider[&quot;registry.terraform.io/hetznercloud/hcloud&quot;] (close)</text>
</g>
<!-- [root] provider[&quot;registry.terraform.io/hetznercloud/hcloud&quot;] (close)&#45;&gt;[root] hcloud_server.cluster (expand) -->
<g id="edge21" class="edge">
<title>[root] provider[&quot;registry.terraform.io/hetznercloud/hcloud&quot;] (close)&#45;&gt;[root] hcloud_server.cluster (expand)</title>
<path fill="none" stroke="black" d="M1721.63,-432.01C1672.54,-406.19 1579.18,-357.09 1525.22,-328.72"/>
<polygon fill="black" stroke="black" points="1526.75,-325.56 1516.27,-324.01 1523.49,-331.76 1526.75,-325.56"/>
</g>
<!-- [root] provider[&quot;registry.terraform.io/ovh/ovh&quot;].eu (close) -->
<g id="node26" class="node">
<title>[root] provider[&quot;registry.terraform.io/ovh/ovh&quot;].eu (close)</title>
<ellipse fill="none" stroke="black" cx="2367.93" cy="-450" rx="276.45" ry="18"/>
<text text-anchor="middle" x="2367.93" y="-446.3" font-family="Times,serif" font-size="14.00">[root] provider[&quot;registry.terraform.io/ovh/ovh&quot;].eu (close)</text>
</g>
<!-- [root] provider[&quot;registry.terraform.io/ovh/ovh&quot;].eu (close)&#45;&gt;[root] ovh_domain_zone_record.node (expand) -->
<g id="edge23" class="edge">
<title>[root] provider[&quot;registry.terraform.io/ovh/ovh&quot;].eu (close)&#45;&gt;[root] ovh_domain_zone_record.node (expand)</title>
<path fill="none" stroke="black" d="M2299.58,-432.5C2257.31,-422.3 2202.85,-409.15 2158.49,-398.44"/>
<polygon fill="black" stroke="black" points="2159.15,-395 2148.61,-396.06 2157.51,-401.81 2159.15,-395"/>
</g>
<!-- [root] provider[&quot;registry.terraform.io/ovh/ovh&quot;].eu (close)&#45;&gt;[root] ovh_domain_zone_record.root (expand) -->
<g id="edge24" class="edge">
<title>[root] provider[&quot;registry.terraform.io/ovh/ovh&quot;].eu (close)&#45;&gt;[root] ovh_domain_zone_record.root (expand)</title>
<path fill="none" stroke="black" d="M2357.8,-431.7C2353.08,-423.64 2347.37,-413.89 2342.15,-404.98"/>
<polygon fill="black" stroke="black" points="2345.03,-402.96 2336.95,-396.1 2338.99,-406.5 2345.03,-402.96"/>
</g>
<!-- [root] root -->
<g id="node27" class="node">
<title>[root] root</title>
<ellipse fill="none" stroke="black" cx="1367.93" cy="-522" rx="58.49" ry="18"/>
<text text-anchor="middle" x="1367.93" y="-518.3" font-family="Times,serif" font-size="14.00">[root] root</text>
</g>
<!-- [root] root&#45;&gt;[root] output.ip -->
<g id="edge28" class="edge">
<title>[root] root&#45;&gt;[root] output.ip</title>
<path fill="none" stroke="black" d="M1367.93,-503.87C1367.93,-479.67 1367.93,-435.21 1367.93,-406.39"/>
<polygon fill="black" stroke="black" points="1371.43,-406.19 1367.93,-396.19 1364.43,-406.19 1371.43,-406.19"/>
</g>
<!-- [root] root&#45;&gt;[root] output.status -->
<g id="edge29" class="edge">
<title>[root] root&#45;&gt;[root] output.status</title>
<path fill="none" stroke="black" d="M1376.99,-504C1387.32,-485.38 1405.33,-455.07 1424.93,-432 1433.73,-421.65 1444.5,-411.41 1454.43,-402.73"/>
<polygon fill="black" stroke="black" points="1456.82,-405.28 1462.15,-396.13 1452.28,-399.96 1456.82,-405.28"/>
</g>
<!-- [root] root&#45;&gt;[root] output.url -->
<g id="edge30" class="edge">
<title>[root] root&#45;&gt;[root] output.url</title>
<path fill="none" stroke="black" d="M1309.23,-520.68C1070.1,-519.12 180.1,-510.45 138.93,-468 104.66,-432.66 116.6,-369.75 127.39,-333.92"/>
<polygon fill="black" stroke="black" points="130.8,-334.75 130.5,-324.16 124.13,-332.62 130.8,-334.75"/>
</g>
<!-- [root] root&#45;&gt;[root] provider[&quot;registry.terraform.io/hashicorp/null&quot;] (close) -->
<g id="edge31" class="edge">
<title>[root] root&#45;&gt;[root] provider[&quot;registry.terraform.io/hashicorp/null&quot;] (close)</title>
<path fill="none" stroke="black" d="M1311.63,-516.75C1178.75,-506.73 840.77,-481.24 626.82,-465.1"/>
<polygon fill="black" stroke="black" points="626.97,-461.6 616.73,-464.34 626.44,-468.58 626.97,-461.6"/>
</g>
<!-- [root] root&#45;&gt;[root] provider[&quot;registry.terraform.io/hashicorp/time&quot;] (close) -->
<g id="edge32" class="edge">
<title>[root] root&#45;&gt;[root] provider[&quot;registry.terraform.io/hashicorp/time&quot;] (close)</title>
<path fill="none" stroke="black" d="M1321.66,-510.97C1272,-500.21 1192.03,-482.88 1130.79,-469.61"/>
<polygon fill="black" stroke="black" points="1131.26,-466.13 1120.75,-467.43 1129.78,-472.97 1131.26,-466.13"/>
</g>
<!-- [root] root&#45;&gt;[root] provider[&quot;registry.terraform.io/hetznercloud/hcloud&quot;] (close) -->
<g id="edge33" class="edge">
<title>[root] root&#45;&gt;[root] provider[&quot;registry.terraform.io/hetznercloud/hcloud&quot;] (close)</title>
<path fill="none" stroke="black" d="M1417.21,-512.06C1476.64,-501.29 1577.99,-482.91 1654.02,-469.12"/>
<polygon fill="black" stroke="black" points="1654.88,-472.52 1664.1,-467.29 1653.63,-465.63 1654.88,-472.52"/>
</g>
<!-- [root] root&#45;&gt;[root] provider[&quot;registry.terraform.io/ovh/ovh&quot;].eu (close) -->
<g id="edge34" class="edge">
<title>[root] root&#45;&gt;[root] provider[&quot;registry.terraform.io/ovh/ovh&quot;].eu (close)</title>
<path fill="none" stroke="black" d="M1424.2,-517.06C1566.27,-507.12 1944.66,-480.63 2176.86,-464.37"/>
<polygon fill="black" stroke="black" points="2177.39,-467.85 2187.12,-463.66 2176.9,-460.86 2177.39,-467.85"/>
</g>
</g>
</svg>
