<?xml version="1.0" encoding="UTF-8" standalone="no"?>
<!DOCTYPE svg PUBLIC "-//W3C//DTD SVG 1.1//EN"
 "http://www.w3.org/Graphics/SVG/1.1/DTD/svg11.dtd">
<!-- Generated by graphviz version 2.43.0 (0)
 -->
<!-- Title: %3 Pages: 1 -->
<svg width="1344pt" height="476pt"
 viewBox="0.00 0.00 1343.55 476.00" xmlns="http://www.w3.org/2000/svg" xmlns:xlink="http://www.w3.org/1999/xlink">
<g id="graph0" class="graph" transform="scale(1 1) rotate(0) translate(4 472)">
<title>%3</title>
<polygon fill="white" stroke="transparent" points="-4,4 -4,-472 1339.55,-472 1339.55,4 -4,4"/>
<!-- [root] data.hcloud_ssh_key.ssh_key (expand) -->
<g id="node1" class="node">
<title>[root] data.hcloud_ssh_key.ssh_key (expand)</title>
<polygon fill="none" stroke="black" points="716.05,-180 496.05,-180 496.05,-144 716.05,-144 716.05,-180"/>
<text text-anchor="middle" x="606.05" y="-158.3" font-family="Times,serif" font-size="14.00">data.hcloud_ssh_key.ssh_key</text>
</g>
<!-- [root] provider[&quot;registry.terraform.io/hetznercloud/hcloud&quot;] -->
<g id="node7" class="node">
<title>[root] provider[&quot;registry.terraform.io/hetznercloud/hcloud&quot;]</title>
<polygon fill="none" stroke="black" points="369.05,-108 4.24,-90 369.05,-72 733.86,-90 369.05,-108"/>
<text text-anchor="middle" x="369.05" y="-86.3" font-family="Times,serif" font-size="14.00">provider[&quot;registry.terraform.io/hetznercloud/hcloud&quot;]</text>
</g>
<!-- [root] data.hcloud_ssh_key.ssh_key (expand)&#45;&gt;[root] provider[&quot;registry.terraform.io/hetznercloud/hcloud&quot;] -->
<g id="edge1" class="edge">
<title>[root] data.hcloud_ssh_key.ssh_key (expand)&#45;&gt;[root] provider[&quot;registry.terraform.io/hetznercloud/hcloud&quot;]</title>
<path fill="none" stroke="black" d="M548.37,-143.97C512.05,-133.24 465.27,-119.42 428.6,-108.59"/>
<polygon fill="black" stroke="black" points="429.12,-105.09 418.54,-105.62 427.14,-111.81 429.12,-105.09"/>
</g>
<!-- [root] var.hetzner_fingerprint -->
<g id="node10" class="node">
<title>[root] var.hetzner_fingerprint</title>
<polygon fill="none" stroke="black" points="928.05,-108 752.05,-108 752.05,-72 934.05,-72 934.05,-102 928.05,-108"/>
<polyline fill="none" stroke="black" points="928.05,-108 928.05,-102 "/>
<polyline fill="none" stroke="black" points="934.05,-102 928.05,-102 "/>
<text text-anchor="middle" x="843.05" y="-86.3" font-family="Times,serif" font-size="14.00">var.hetzner_fingerprint</text>
</g>
<!-- [root] data.hcloud_ssh_key.ssh_key (expand)&#45;&gt;[root] var.hetzner_fingerprint -->
<g id="edge2" class="edge">
<title>[root] data.hcloud_ssh_key.ssh_key (expand)&#45;&gt;[root] var.hetzner_fingerprint</title>
<path fill="none" stroke="black" d="M663.72,-143.97C697.41,-134.01 740.1,-121.41 775.37,-110.99"/>
<polygon fill="black" stroke="black" points="776.51,-114.3 785.11,-108.11 774.53,-107.59 776.51,-114.3"/>
</g>
<!-- [root] hcloud_server.node (expand) -->
<g id="node2" class="node">
<title>[root] hcloud_server.node (expand)</title>
<polygon fill="none" stroke="black" points="683.05,-252 529.05,-252 529.05,-216 683.05,-216 683.05,-252"/>
<text text-anchor="middle" x="606.05" y="-230.3" font-family="Times,serif" font-size="14.00">hcloud_server.node</text>
</g>
<!-- [root] hcloud_server.node (expand)&#45;&gt;[root] data.hcloud_ssh_key.ssh_key (expand) -->
<g id="edge3" class="edge">
<title>[root] hcloud_server.node (expand)&#45;&gt;[root] data.hcloud_ssh_key.ssh_key (expand)</title>
<path fill="none" stroke="black" d="M606.05,-215.7C606.05,-207.98 606.05,-198.71 606.05,-190.11"/>
<polygon fill="black" stroke="black" points="609.55,-190.1 606.05,-180.1 602.55,-190.1 609.55,-190.1"/>
</g>
<!-- [root] var.domain_name -->
<g id="node9" class="node">
<title>[root] var.domain_name</title>
<polygon fill="none" stroke="black" points="366.55,-180 231.55,-180 231.55,-144 372.55,-144 372.55,-174 366.55,-180"/>
<polyline fill="none" stroke="black" points="366.55,-180 366.55,-174 "/>
<polyline fill="none" stroke="black" points="372.55,-174 366.55,-174 "/>
<text text-anchor="middle" x="302.05" y="-158.3" font-family="Times,serif" font-size="14.00">var.domain_name</text>
</g>
<!-- [root] hcloud_server.node (expand)&#45;&gt;[root] var.domain_name -->
<g id="edge4" class="edge">
<title>[root] hcloud_server.node (expand)&#45;&gt;[root] var.domain_name</title>
<path fill="none" stroke="black" d="M532.07,-215.97C486.88,-205.56 429.06,-192.25 382.7,-181.57"/>
<polygon fill="black" stroke="black" points="383.22,-178.1 372.69,-179.27 381.65,-184.92 383.22,-178.1"/>
</g>
<!-- [root] output.ip -->
<g id="node3" class="node">
<title>[root] output.ip</title>
<polygon fill="none" stroke="black" points="641.05,-324 565.05,-324 565.05,-288 647.05,-288 647.05,-318 641.05,-324"/>
<polyline fill="none" stroke="black" points="641.05,-324 641.05,-318 "/>
<polyline fill="none" stroke="black" points="647.05,-318 641.05,-318 "/>
<text text-anchor="middle" x="606.05" y="-302.3" font-family="Times,serif" font-size="14.00">output.ip</text>
</g>
<!-- [root] output.ip&#45;&gt;[root] hcloud_server.node (expand) -->
<g id="edge5" class="edge">
<title>[root] output.ip&#45;&gt;[root] hcloud_server.node (expand)</title>
<path fill="none" stroke="black" d="M606.05,-287.7C606.05,-279.98 606.05,-270.71 606.05,-262.11"/>
<polygon fill="black" stroke="black" points="609.55,-262.1 606.05,-252.1 602.55,-262.1 609.55,-262.1"/>
</g>
<!-- [root] output.status -->
<g id="node4" class="node">
<title>[root] output.status</title>
<polygon fill="none" stroke="black" points="774.55,-324 667.55,-324 667.55,-288 780.55,-288 780.55,-318 774.55,-324"/>
<polyline fill="none" stroke="black" points="774.55,-324 774.55,-318 "/>
<polyline fill="none" stroke="black" points="780.55,-318 774.55,-318 "/>
<text text-anchor="middle" x="724.05" y="-302.3" font-family="Times,serif" font-size="14.00">output.status</text>
</g>
<!-- [root] output.status&#45;&gt;[root] hcloud_server.node (expand) -->
<g id="edge6" class="edge">
<title>[root] output.status&#45;&gt;[root] hcloud_server.node (expand)</title>
<path fill="none" stroke="black" d="M695.18,-287.88C679.75,-278.72 660.56,-267.34 643.95,-257.48"/>
<polygon fill="black" stroke="black" points="645.41,-254.28 635.02,-252.19 641.84,-260.3 645.41,-254.28"/>
</g>
<!-- [root] output.url -->
<g id="node5" class="node">
<title>[root] output.url</title>
<polygon fill="none" stroke="black" points="131.55,-252 48.55,-252 48.55,-216 137.55,-216 137.55,-246 131.55,-252"/>
<polyline fill="none" stroke="black" points="131.55,-252 131.55,-246 "/>
<polyline fill="none" stroke="black" points="137.55,-246 131.55,-246 "/>
<text text-anchor="middle" x="93.05" y="-230.3" font-family="Times,serif" font-size="14.00">output.url</text>
</g>
<!-- [root] output.url&#45;&gt;[root] var.domain_name -->
<g id="edge7" class="edge">
<title>[root] output.url&#45;&gt;[root] var.domain_name</title>
<path fill="none" stroke="black" d="M137.63,-218.07C167.85,-207.95 208.18,-194.44 241.33,-183.34"/>
<polygon fill="black" stroke="black" points="242.55,-186.62 250.92,-180.12 240.32,-179.98 242.55,-186.62"/>
</g>
<!-- [root] ovh_domain_zone_record.root (expand) -->
<g id="node6" class="node">
<title>[root] ovh_domain_zone_record.root (expand)</title>
<polygon fill="none" stroke="black" points="1132.05,-324 904.05,-324 904.05,-288 1132.05,-288 1132.05,-324"/>
<text text-anchor="middle" x="1018.05" y="-302.3" font-family="Times,serif" font-size="14.00">ovh_domain_zone_record.root</text>
</g>
<!-- [root] ovh_domain_zone_record.root (expand)&#45;&gt;[root] hcloud_server.node (expand) -->
<g id="edge8" class="edge">
<title>[root] ovh_domain_zone_record.root (expand)&#45;&gt;[root] hcloud_server.node (expand)</title>
<path fill="none" stroke="black" d="M917.79,-287.97C849.03,-276.28 758.7,-260.94 692.99,-249.77"/>
<polygon fill="black" stroke="black" points="693.51,-246.31 683.07,-248.09 692.34,-253.21 693.51,-246.31"/>
</g>
<!-- [root] provider[&quot;registry.terraform.io/ovh/ovh&quot;] -->
<g id="node8" class="node">
<title>[root] provider[&quot;registry.terraform.io/ovh/ovh&quot;]</title>
<polygon fill="none" stroke="black" points="1019.05,-252 735.85,-234 1019.05,-216 1302.25,-234 1019.05,-252"/>
<text text-anchor="middle" x="1019.05" y="-230.3" font-family="Times,serif" font-size="14.00">provider[&quot;registry.terraform.io/ovh/ovh&quot;]</text>
</g>
<!-- [root] ovh_domain_zone_record.root (expand)&#45;&gt;[root] provider[&quot;registry.terraform.io/ovh/ovh&quot;] -->
<g id="edge9" class="edge">
<title>[root] ovh_domain_zone_record.root (expand)&#45;&gt;[root] provider[&quot;registry.terraform.io/ovh/ovh&quot;]</title>
<path fill="none" stroke="black" d="M1018.29,-287.7C1018.4,-279.98 1018.54,-270.71 1018.66,-262.11"/>
<polygon fill="black" stroke="black" points="1022.16,-262.15 1018.8,-252.1 1015.16,-262.05 1022.16,-262.15"/>
</g>
<!-- [root] var.hetzner_token_cloud -->
<g id="node11" class="node">
<title>[root] var.hetzner_token_cloud</title>
<polygon fill="none" stroke="black" points="457.55,-36 274.55,-36 274.55,0 463.55,0 463.55,-30 457.55,-36"/>
<polyline fill="none" stroke="black" points="457.55,-36 457.55,-30 "/>
<polyline fill="none" stroke="black" points="463.55,-30 457.55,-30 "/>
<text text-anchor="middle" x="369.05" y="-14.3" font-family="Times,serif" font-size="14.00">var.hetzner_token_cloud</text>
</g>
<!-- [root] provider[&quot;registry.terraform.io/hetznercloud/hcloud&quot;]&#45;&gt;[root] var.hetzner_token_cloud -->
<g id="edge11" class="edge">
<title>[root] provider[&quot;registry.terraform.io/hetznercloud/hcloud&quot;]&#45;&gt;[root] var.hetzner_token_cloud</title>
<path fill="none" stroke="black" d="M369.05,-71.7C369.05,-63.98 369.05,-54.71 369.05,-46.11"/>
<polygon fill="black" stroke="black" points="372.55,-46.1 369.05,-36.1 365.55,-46.1 372.55,-46.1"/>
</g>
<!-- [root] var.ovh_application_key -->
<g id="node12" class="node">
<title>[root] var.ovh_application_key</title>
<polygon fill="none" stroke="black" points="1106.55,-180 927.55,-180 927.55,-144 1112.55,-144 1112.55,-174 1106.55,-180"/>
<polyline fill="none" stroke="black" points="1106.55,-180 1106.55,-174 "/>
<polyline fill="none" stroke="black" points="1112.55,-174 1106.55,-174 "/>
<text text-anchor="middle" x="1020.05" y="-158.3" font-family="Times,serif" font-size="14.00">var.ovh_application_key</text>
</g>
<!-- [root] provider[&quot;registry.terraform.io/ovh/ovh&quot;]&#45;&gt;[root] var.ovh_application_key -->
<g id="edge13" class="edge">
<title>[root] provider[&quot;registry.terraform.io/ovh/ovh&quot;]&#45;&gt;[root] var.ovh_application_key</title>
<path fill="none" stroke="black" d="M1019.29,-215.7C1019.4,-207.98 1019.54,-198.71 1019.66,-190.11"/>
<polygon fill="black" stroke="black" points="1023.16,-190.15 1019.8,-180.1 1016.16,-190.05 1023.16,-190.15"/>
</g>
<!-- [root] var.ovh_application_secret -->
<g id="node13" class="node">
<title>[root] var.ovh_application_secret</title>
<polygon fill="none" stroke="black" points="1329.55,-180 1130.55,-180 1130.55,-144 1335.55,-144 1335.55,-174 1329.55,-180"/>
<polyline fill="none" stroke="black" points="1329.55,-180 1329.55,-174 "/>
<polyline fill="none" stroke="black" points="1335.55,-174 1329.55,-174 "/>
<text text-anchor="middle" x="1233.05" y="-158.3" font-family="Times,serif" font-size="14.00">var.ovh_application_secret</text>
</g>
<!-- [root] provider[&quot;registry.terraform.io/ovh/ovh&quot;]&#45;&gt;[root] var.ovh_application_secret -->
<g id="edge14" class="edge">
<title>[root] provider[&quot;registry.terraform.io/ovh/ovh&quot;]&#45;&gt;[root] var.ovh_application_secret</title>
<path fill="none" stroke="black" d="M1062.61,-218.75C1093.89,-208.52 1136.48,-194.59 1171.27,-183.21"/>
<polygon fill="black" stroke="black" points="1172.44,-186.51 1180.85,-180.07 1170.26,-179.85 1172.44,-186.51"/>
</g>
<!-- [root] var.ovh_consumer_key -->
<g id="node14" class="node">
<title>[root] var.ovh_consumer_key</title>
<polygon fill="none" stroke="black" points="904.05,-180 734.05,-180 734.05,-144 910.05,-144 910.05,-174 904.05,-180"/>
<polyline fill="none" stroke="black" points="904.05,-180 904.05,-174 "/>
<polyline fill="none" stroke="black" points="910.05,-174 904.05,-174 "/>
<text text-anchor="middle" x="822.05" y="-158.3" font-family="Times,serif" font-size="14.00">var.ovh_consumer_key</text>
</g>
<!-- [root] provider[&quot;registry.terraform.io/ovh/ovh&quot;]&#45;&gt;[root] var.ovh_consumer_key -->
<g id="edge15" class="edge">
<title>[root] provider[&quot;registry.terraform.io/ovh/ovh&quot;]&#45;&gt;[root] var.ovh_consumer_key</title>
<path fill="none" stroke="black" d="M978.23,-218.5C949.73,-208.37 911.29,-194.71 879.68,-183.48"/>
<polygon fill="black" stroke="black" points="880.7,-180.13 870.11,-180.08 878.36,-186.72 880.7,-180.13"/>
</g>
<!-- [root] provider[&quot;registry.terraform.io/hetznercloud/hcloud&quot;] (close) -->
<g id="node15" class="node">
<title>[root] provider[&quot;registry.terraform.io/hetznercloud/hcloud&quot;] (close)</title>
<ellipse fill="none" stroke="black" cx="342.05" cy="-378" rx="319.54" ry="18"/>
<text text-anchor="middle" x="342.05" y="-374.3" font-family="Times,serif" font-size="14.00">[root] provider[&quot;registry.terraform.io/hetznercloud/hcloud&quot;] (close)</text>
</g>
<!-- [root] provider[&quot;registry.terraform.io/hetznercloud/hcloud&quot;] (close)&#45;&gt;[root] hcloud_server.node (expand) -->
<g id="edge10" class="edge">
<title>[root] provider[&quot;registry.terraform.io/hetznercloud/hcloud&quot;] (close)&#45;&gt;[root] hcloud_server.node (expand)</title>
<path fill="none" stroke="black" d="M373.63,-360.01C421.53,-334.25 512.54,-285.29 565.35,-256.89"/>
<polygon fill="black" stroke="black" points="567.28,-259.83 574.43,-252.01 563.96,-253.66 567.28,-259.83"/>
</g>
<!-- [root] provider[&quot;registry.terraform.io/ovh/ovh&quot;] (close) -->
<g id="node16" class="node">
<title>[root] provider[&quot;registry.terraform.io/ovh/ovh&quot;] (close)</title>
<ellipse fill="none" stroke="black" cx="1018.05" cy="-378" rx="261.85" ry="18"/>
<text text-anchor="middle" x="1018.05" y="-374.3" font-family="Times,serif" font-size="14.00">[root] provider[&quot;registry.terraform.io/ovh/ovh&quot;] (close)</text>
</g>
<!-- [root] provider[&quot;registry.terraform.io/ovh/ovh&quot;] (close)&#45;&gt;[root] ovh_domain_zone_record.root (expand) -->
<g id="edge12" class="edge">
<title>[root] provider[&quot;registry.terraform.io/ovh/ovh&quot;] (close)&#45;&gt;[root] ovh_domain_zone_record.root (expand)</title>
<path fill="none" stroke="black" d="M1018.05,-359.7C1018.05,-351.98 1018.05,-342.71 1018.05,-334.11"/>
<polygon fill="black" stroke="black" points="1021.55,-334.1 1018.05,-324.1 1014.55,-334.1 1021.55,-334.1"/>
</g>
<!-- [root] root -->
<g id="node17" class="node">
<title>[root] root</title>
<ellipse fill="none" stroke="black" cx="690.05" cy="-450" rx="58.49" ry="18"/>
<text text-anchor="middle" x="690.05" y="-446.3" font-family="Times,serif" font-size="14.00">[root] root</text>
</g>
<!-- [root] root&#45;&gt;[root] output.ip -->
<g id="edge16" class="edge">
<title>[root] root&#45;&gt;[root] output.ip</title>
<path fill="none" stroke="black" d="M689.7,-431.69C688.6,-412.79 684.64,-382.24 671.05,-360 664.04,-348.53 653.63,-338.44 643.19,-330.23"/>
<polygon fill="black" stroke="black" points="644.98,-327.2 634.87,-324.05 640.81,-332.82 644.98,-327.2"/>
</g>
<!-- [root] root&#45;&gt;[root] output.status -->
<g id="edge17" class="edge">
<title>[root] root&#45;&gt;[root] output.status</title>
<path fill="none" stroke="black" d="M694.75,-431.86C697.55,-421.5 701.11,-408.02 704.05,-396 709.09,-375.36 714.34,-351.91 718.19,-334.27"/>
<polygon fill="black" stroke="black" points="721.7,-334.62 720.4,-324.11 714.86,-333.14 721.7,-334.62"/>
</g>
<!-- [root] root&#45;&gt;[root] output.url -->
<g id="edge18" class="edge">
<title>[root] root&#45;&gt;[root] output.url</title>
<path fill="none" stroke="black" d="M631.39,-448.85C474.57,-447.85 54.62,-440.96 13.05,-396 -24.84,-355.03 29.21,-292.76 65.26,-258.92"/>
<polygon fill="black" stroke="black" points="67.64,-261.49 72.64,-252.15 62.91,-256.34 67.64,-261.49"/>
</g>
<!-- [root] root&#45;&gt;[root] provider[&quot;registry.terraform.io/hetznercloud/hcloud&quot;] (close) -->
<g id="edge19" class="edge">
<title>[root] root&#45;&gt;[root] provider[&quot;registry.terraform.io/hetznercloud/hcloud&quot;] (close)</title>
<path fill="none" stroke="black" d="M642.39,-439.41C588.92,-428.66 500.91,-410.95 433.94,-397.49"/>
<polygon fill="black" stroke="black" points="434.3,-393.99 423.8,-395.45 432.92,-400.85 434.3,-393.99"/>
</g>
<!-- [root] root&#45;&gt;[root] provider[&quot;registry.terraform.io/ovh/ovh&quot;] (close) -->
<g id="edge20" class="edge">
<title>[root] root&#45;&gt;[root] provider[&quot;registry.terraform.io/ovh/ovh&quot;] (close)</title>
<path fill="none" stroke="black" d="M736.69,-439.05C787.39,-428.22 869.52,-410.7 931.99,-397.37"/>
<polygon fill="black" stroke="black" points="932.79,-400.77 941.83,-395.26 931.32,-393.93 932.79,-400.77"/>
</g>
</g>
</svg>
