<?xml version="1.0" encoding="UTF-8" standalone="no"?>
<!DOCTYPE svg PUBLIC "-//W3C//DTD SVG 1.1//EN"
 "http://www.w3.org/Graphics/SVG/1.1/DTD/svg11.dtd">
<!-- Generated by graphviz version 2.43.0 (0)
 -->
<!-- Title: %3 Pages: 1 -->
<svg width="1345pt" height="476pt"
 viewBox="0.00 0.00 1344.76 476.00" xmlns="http://www.w3.org/2000/svg" xmlns:xlink="http://www.w3.org/1999/xlink">
<g id="graph0" class="graph" transform="scale(1 1) rotate(0) translate(4 472)">
<title>%3</title>
<polygon fill="white" stroke="transparent" points="-4,4 -4,-472 1340.76,-472 1340.76,4 -4,4"/>
<!-- [root] data.hcloud_ssh_key.ssh_key (expand) -->
<g id="node1" class="node">
<title>[root] data.hcloud_ssh_key.ssh_key (expand)</title>
<polygon fill="none" stroke="black" points="717.26,-180 497.26,-180 497.26,-144 717.26,-144 717.26,-180"/>
<text text-anchor="middle" x="607.26" y="-158.3" font-family="Times,serif" font-size="14.00">data.hcloud_ssh_key.ssh_key</text>
</g>
<!-- [root] provider[&quot;registry.terraform.io/hetznercloud/hcloud&quot;] -->
<g id="node7" class="node">
<title>[root] provider[&quot;registry.terraform.io/hetznercloud/hcloud&quot;]</title>
<polygon fill="none" stroke="black" points="370.26,-108 5.45,-90 370.26,-72 735.07,-90 370.26,-108"/>
<text text-anchor="middle" x="370.26" y="-86.3" font-family="Times,serif" font-size="14.00">provider[&quot;registry.terraform.io/hetznercloud/hcloud&quot;]</text>
</g>
<!-- [root] data.hcloud_ssh_key.ssh_key (expand)&#45;&gt;[root] provider[&quot;registry.terraform.io/hetznercloud/hcloud&quot;] -->
<g id="edge1" class="edge">
<title>[root] data.hcloud_ssh_key.ssh_key (expand)&#45;&gt;[root] provider[&quot;registry.terraform.io/hetznercloud/hcloud&quot;]</title>
<path fill="none" stroke="black" d="M549.58,-143.97C513.26,-133.24 466.48,-119.42 429.81,-108.59"/>
<polygon fill="black" stroke="black" points="430.33,-105.09 419.75,-105.62 428.35,-111.81 430.33,-105.09"/>
</g>
<!-- [root] var.hetzner_fingerprint -->
<g id="node9" class="node">
<title>[root] var.hetzner_fingerprint</title>
<polygon fill="none" stroke="black" points="929.26,-108 753.26,-108 753.26,-72 935.26,-72 935.26,-102 929.26,-108"/>
<polyline fill="none" stroke="black" points="929.26,-108 929.26,-102 "/>
<polyline fill="none" stroke="black" points="935.26,-102 929.26,-102 "/>
<text text-anchor="middle" x="844.26" y="-86.3" font-family="Times,serif" font-size="14.00">var.hetzner_fingerprint</text>
</g>
<!-- [root] data.hcloud_ssh_key.ssh_key (expand)&#45;&gt;[root] var.hetzner_fingerprint -->
<g id="edge2" class="edge">
<title>[root] data.hcloud_ssh_key.ssh_key (expand)&#45;&gt;[root] var.hetzner_fingerprint</title>
<path fill="none" stroke="black" d="M664.93,-143.97C698.62,-134.01 741.31,-121.41 776.59,-110.99"/>
<polygon fill="black" stroke="black" points="777.73,-114.3 786.33,-108.11 775.74,-107.59 777.73,-114.3"/>
</g>
<!-- [root] hcloud_server.node (expand) -->
<g id="node2" class="node">
<title>[root] hcloud_server.node (expand)</title>
<polygon fill="none" stroke="black" points="684.26,-252 530.26,-252 530.26,-216 684.26,-216 684.26,-252"/>
<text text-anchor="middle" x="607.26" y="-230.3" font-family="Times,serif" font-size="14.00">hcloud_server.node</text>
</g>
<!-- [root] hcloud_server.node (expand)&#45;&gt;[root] data.hcloud_ssh_key.ssh_key (expand) -->
<g id="edge3" class="edge">
<title>[root] hcloud_server.node (expand)&#45;&gt;[root] data.hcloud_ssh_key.ssh_key (expand)</title>
<path fill="none" stroke="black" d="M607.26,-215.7C607.26,-207.98 607.26,-198.71 607.26,-190.11"/>
<polygon fill="black" stroke="black" points="610.76,-190.1 607.26,-180.1 603.76,-190.1 610.76,-190.1"/>
</g>
<!-- [root] local.domain_name (expand) -->
<g id="node14" class="node">
<title>[root] local.domain_name (expand)</title>
<ellipse fill="none" stroke="black" cx="228.26" cy="-162" rx="170.87" ry="18"/>
<text text-anchor="middle" x="228.26" y="-158.3" font-family="Times,serif" font-size="14.00">[root] local.domain_name (expand)</text>
</g>
<!-- [root] hcloud_server.node (expand)&#45;&gt;[root] local.domain_name (expand) -->
<g id="edge4" class="edge">
<title>[root] hcloud_server.node (expand)&#45;&gt;[root] local.domain_name (expand)</title>
<path fill="none" stroke="black" d="M530.1,-218.75C468.99,-207.46 383.46,-191.67 319.05,-179.77"/>
<polygon fill="black" stroke="black" points="319.37,-176.27 308.9,-177.89 318.1,-183.15 319.37,-176.27"/>
</g>
<!-- [root] output.ip -->
<g id="node3" class="node">
<title>[root] output.ip</title>
<polygon fill="none" stroke="black" points="642.26,-324 566.26,-324 566.26,-288 648.26,-288 648.26,-318 642.26,-324"/>
<polyline fill="none" stroke="black" points="642.26,-324 642.26,-318 "/>
<polyline fill="none" stroke="black" points="648.26,-318 642.26,-318 "/>
<text text-anchor="middle" x="607.26" y="-302.3" font-family="Times,serif" font-size="14.00">output.ip</text>
</g>
<!-- [root] output.ip&#45;&gt;[root] hcloud_server.node (expand) -->
<g id="edge5" class="edge">
<title>[root] output.ip&#45;&gt;[root] hcloud_server.node (expand)</title>
<path fill="none" stroke="black" d="M607.26,-287.7C607.26,-279.98 607.26,-270.71 607.26,-262.11"/>
<polygon fill="black" stroke="black" points="610.76,-262.1 607.26,-252.1 603.76,-262.1 610.76,-262.1"/>
</g>
<!-- [root] output.status -->
<g id="node4" class="node">
<title>[root] output.status</title>
<polygon fill="none" stroke="black" points="775.76,-324 668.76,-324 668.76,-288 781.76,-288 781.76,-318 775.76,-324"/>
<polyline fill="none" stroke="black" points="775.76,-324 775.76,-318 "/>
<polyline fill="none" stroke="black" points="781.76,-318 775.76,-318 "/>
<text text-anchor="middle" x="725.26" y="-302.3" font-family="Times,serif" font-size="14.00">output.status</text>
</g>
<!-- [root] output.status&#45;&gt;[root] hcloud_server.node (expand) -->
<g id="edge6" class="edge">
<title>[root] output.status&#45;&gt;[root] hcloud_server.node (expand)</title>
<path fill="none" stroke="black" d="M696.39,-287.88C680.96,-278.72 661.78,-267.34 645.16,-257.48"/>
<polygon fill="black" stroke="black" points="646.62,-254.28 636.23,-252.19 643.05,-260.3 646.62,-254.28"/>
</g>
<!-- [root] output.url -->
<g id="node5" class="node">
<title>[root] output.url</title>
<polygon fill="none" stroke="black" points="107.76,-252 24.76,-252 24.76,-216 113.76,-216 113.76,-246 107.76,-252"/>
<polyline fill="none" stroke="black" points="107.76,-252 107.76,-246 "/>
<polyline fill="none" stroke="black" points="113.76,-246 107.76,-246 "/>
<text text-anchor="middle" x="69.26" y="-230.3" font-family="Times,serif" font-size="14.00">output.url</text>
</g>
<!-- [root] output.url&#45;&gt;[root] local.domain_name (expand) -->
<g id="edge7" class="edge">
<title>[root] output.url&#45;&gt;[root] local.domain_name (expand)</title>
<path fill="none" stroke="black" d="M108.15,-215.88C130.21,-206.16 157.97,-193.94 181.25,-183.7"/>
<polygon fill="black" stroke="black" points="182.84,-186.82 190.59,-179.59 180.02,-180.41 182.84,-186.82"/>
</g>
<!-- [root] ovh_domain_zone_record.root (expand) -->
<g id="node6" class="node">
<title>[root] ovh_domain_zone_record.root (expand)</title>
<polygon fill="none" stroke="black" points="1133.26,-324 905.26,-324 905.26,-288 1133.26,-288 1133.26,-324"/>
<text text-anchor="middle" x="1019.26" y="-302.3" font-family="Times,serif" font-size="14.00">ovh_domain_zone_record.root</text>
</g>
<!-- [root] ovh_domain_zone_record.root (expand)&#45;&gt;[root] hcloud_server.node (expand) -->
<g id="edge8" class="edge">
<title>[root] ovh_domain_zone_record.root (expand)&#45;&gt;[root] hcloud_server.node (expand)</title>
<path fill="none" stroke="black" d="M919,-287.97C850.24,-276.28 759.91,-260.94 694.2,-249.77"/>
<polygon fill="black" stroke="black" points="694.72,-246.31 684.28,-248.09 693.55,-253.21 694.72,-246.31"/>
</g>
<!-- [root] provider[&quot;registry.terraform.io/ovh/ovh&quot;] -->
<g id="node8" class="node">
<title>[root] provider[&quot;registry.terraform.io/ovh/ovh&quot;]</title>
<polygon fill="none" stroke="black" points="1020.26,-252 737.06,-234 1020.26,-216 1303.46,-234 1020.26,-252"/>
<text text-anchor="middle" x="1020.26" y="-230.3" font-family="Times,serif" font-size="14.00">provider[&quot;registry.terraform.io/ovh/ovh&quot;]</text>
</g>
<!-- [root] ovh_domain_zone_record.root (expand)&#45;&gt;[root] provider[&quot;registry.terraform.io/ovh/ovh&quot;] -->
<g id="edge9" class="edge">
<title>[root] ovh_domain_zone_record.root (expand)&#45;&gt;[root] provider[&quot;registry.terraform.io/ovh/ovh&quot;]</title>
<path fill="none" stroke="black" d="M1019.51,-287.7C1019.62,-279.98 1019.75,-270.71 1019.87,-262.11"/>
<polygon fill="black" stroke="black" points="1023.37,-262.15 1020.01,-252.1 1016.37,-262.05 1023.37,-262.15"/>
</g>
<!-- [root] var.hetzner_token_cloud -->
<g id="node10" class="node">
<title>[root] var.hetzner_token_cloud</title>
<polygon fill="none" stroke="black" points="458.76,-36 275.76,-36 275.76,0 464.76,0 464.76,-30 458.76,-36"/>
<polyline fill="none" stroke="black" points="458.76,-36 458.76,-30 "/>
<polyline fill="none" stroke="black" points="464.76,-30 458.76,-30 "/>
<text text-anchor="middle" x="370.26" y="-14.3" font-family="Times,serif" font-size="14.00">var.hetzner_token_cloud</text>
</g>
<!-- [root] provider[&quot;registry.terraform.io/hetznercloud/hcloud&quot;]&#45;&gt;[root] var.hetzner_token_cloud -->
<g id="edge11" class="edge">
<title>[root] provider[&quot;registry.terraform.io/hetznercloud/hcloud&quot;]&#45;&gt;[root] var.hetzner_token_cloud</title>
<path fill="none" stroke="black" d="M370.26,-71.7C370.26,-63.98 370.26,-54.71 370.26,-46.11"/>
<polygon fill="black" stroke="black" points="373.76,-46.1 370.26,-36.1 366.76,-46.1 373.76,-46.1"/>
</g>
<!-- [root] var.ovh_application_key -->
<g id="node11" class="node">
<title>[root] var.ovh_application_key</title>
<polygon fill="none" stroke="black" points="1107.76,-180 928.76,-180 928.76,-144 1113.76,-144 1113.76,-174 1107.76,-180"/>
<polyline fill="none" stroke="black" points="1107.76,-180 1107.76,-174 "/>
<polyline fill="none" stroke="black" points="1113.76,-174 1107.76,-174 "/>
<text text-anchor="middle" x="1021.26" y="-158.3" font-family="Times,serif" font-size="14.00">var.ovh_application_key</text>
</g>
<!-- [root] provider[&quot;registry.terraform.io/ovh/ovh&quot;]&#45;&gt;[root] var.ovh_application_key -->
<g id="edge13" class="edge">
<title>[root] provider[&quot;registry.terraform.io/ovh/ovh&quot;]&#45;&gt;[root] var.ovh_application_key</title>
<path fill="none" stroke="black" d="M1020.51,-215.7C1020.62,-207.98 1020.75,-198.71 1020.87,-190.11"/>
<polygon fill="black" stroke="black" points="1024.37,-190.15 1021.01,-180.1 1017.37,-190.05 1024.37,-190.15"/>
</g>
<!-- [root] var.ovh_application_secret -->
<g id="node12" class="node">
<title>[root] var.ovh_application_secret</title>
<polygon fill="none" stroke="black" points="1330.76,-180 1131.76,-180 1131.76,-144 1336.76,-144 1336.76,-174 1330.76,-180"/>
<polyline fill="none" stroke="black" points="1330.76,-180 1330.76,-174 "/>
<polyline fill="none" stroke="black" points="1336.76,-174 1330.76,-174 "/>
<text text-anchor="middle" x="1234.26" y="-158.3" font-family="Times,serif" font-size="14.00">var.ovh_application_secret</text>
</g>
<!-- [root] provider[&quot;registry.terraform.io/ovh/ovh&quot;]&#45;&gt;[root] var.ovh_application_secret -->
<g id="edge14" class="edge">
<title>[root] provider[&quot;registry.terraform.io/ovh/ovh&quot;]&#45;&gt;[root] var.ovh_application_secret</title>
<path fill="none" stroke="black" d="M1063.82,-218.75C1095.1,-208.52 1137.7,-194.59 1172.48,-183.21"/>
<polygon fill="black" stroke="black" points="1173.65,-186.51 1182.07,-180.07 1171.47,-179.85 1173.65,-186.51"/>
</g>
<!-- [root] var.ovh_consumer_key -->
<g id="node13" class="node">
<title>[root] var.ovh_consumer_key</title>
<polygon fill="none" stroke="black" points="905.26,-180 735.26,-180 735.26,-144 911.26,-144 911.26,-174 905.26,-180"/>
<polyline fill="none" stroke="black" points="905.26,-180 905.26,-174 "/>
<polyline fill="none" stroke="black" points="911.26,-174 905.26,-174 "/>
<text text-anchor="middle" x="823.26" y="-158.3" font-family="Times,serif" font-size="14.00">var.ovh_consumer_key</text>
</g>
<!-- [root] provider[&quot;registry.terraform.io/ovh/ovh&quot;]&#45;&gt;[root] var.ovh_consumer_key -->
<g id="edge15" class="edge">
<title>[root] provider[&quot;registry.terraform.io/ovh/ovh&quot;]&#45;&gt;[root] var.ovh_consumer_key</title>
<path fill="none" stroke="black" d="M979.44,-218.5C950.94,-208.37 912.5,-194.71 880.89,-183.48"/>
<polygon fill="black" stroke="black" points="881.91,-180.13 871.32,-180.08 879.57,-186.72 881.91,-180.13"/>
</g>
<!-- [root] provider[&quot;registry.terraform.io/hetznercloud/hcloud&quot;] (close) -->
<g id="node15" class="node">
<title>[root] provider[&quot;registry.terraform.io/hetznercloud/hcloud&quot;] (close)</title>
<ellipse fill="none" stroke="black" cx="343.26" cy="-378" rx="319.54" ry="18"/>
<text text-anchor="middle" x="343.26" y="-374.3" font-family="Times,serif" font-size="14.00">[root] provider[&quot;registry.terraform.io/hetznercloud/hcloud&quot;] (close)</text>
</g>
<!-- [root] provider[&quot;registry.terraform.io/hetznercloud/hcloud&quot;] (close)&#45;&gt;[root] hcloud_server.node (expand) -->
<g id="edge10" class="edge">
<title>[root] provider[&quot;registry.terraform.io/hetznercloud/hcloud&quot;] (close)&#45;&gt;[root] hcloud_server.node (expand)</title>
<path fill="none" stroke="black" d="M374.84,-360.01C422.74,-334.25 513.76,-285.29 566.56,-256.89"/>
<polygon fill="black" stroke="black" points="568.49,-259.83 575.64,-252.01 565.17,-253.66 568.49,-259.83"/>
</g>
<!-- [root] provider[&quot;registry.terraform.io/ovh/ovh&quot;] (close) -->
<g id="node16" class="node">
<title>[root] provider[&quot;registry.terraform.io/ovh/ovh&quot;] (close)</title>
<ellipse fill="none" stroke="black" cx="1019.26" cy="-378" rx="261.85" ry="18"/>
<text text-anchor="middle" x="1019.26" y="-374.3" font-family="Times,serif" font-size="14.00">[root] provider[&quot;registry.terraform.io/ovh/ovh&quot;] (close)</text>
</g>
<!-- [root] provider[&quot;registry.terraform.io/ovh/ovh&quot;] (close)&#45;&gt;[root] ovh_domain_zone_record.root (expand) -->
<g id="edge12" class="edge">
<title>[root] provider[&quot;registry.terraform.io/ovh/ovh&quot;] (close)&#45;&gt;[root] ovh_domain_zone_record.root (expand)</title>
<path fill="none" stroke="black" d="M1019.26,-359.7C1019.26,-351.98 1019.26,-342.71 1019.26,-334.11"/>
<polygon fill="black" stroke="black" points="1022.76,-334.1 1019.26,-324.1 1015.76,-334.1 1022.76,-334.1"/>
</g>
<!-- [root] root -->
<g id="node17" class="node">
<title>[root] root</title>
<ellipse fill="none" stroke="black" cx="691.26" cy="-450" rx="58.49" ry="18"/>
<text text-anchor="middle" x="691.26" y="-446.3" font-family="Times,serif" font-size="14.00">[root] root</text>
</g>
<!-- [root] root&#45;&gt;[root] output.ip -->
<g id="edge16" class="edge">
<title>[root] root&#45;&gt;[root] output.ip</title>
<path fill="none" stroke="black" d="M690.92,-431.69C689.82,-412.79 685.85,-382.24 672.26,-360 665.25,-348.53 654.84,-338.44 644.4,-330.23"/>
<polygon fill="black" stroke="black" points="646.2,-327.2 636.08,-324.05 642.02,-332.82 646.2,-327.2"/>
</g>
<!-- [root] root&#45;&gt;[root] output.status -->
<g id="edge17" class="edge">
<title>[root] root&#45;&gt;[root] output.status</title>
<path fill="none" stroke="black" d="M695.96,-431.86C698.76,-421.5 702.32,-408.02 705.26,-396 710.3,-375.36 715.55,-351.91 719.41,-334.27"/>
<polygon fill="black" stroke="black" points="722.91,-334.62 721.61,-324.11 716.07,-333.14 722.91,-334.62"/>
</g>
<!-- [root] root&#45;&gt;[root] output.url -->
<g id="edge18" class="edge">
<title>[root] root&#45;&gt;[root] output.url</title>
<path fill="none" stroke="black" d="M632.61,-448.85C475.78,-447.85 55.83,-440.96 14.26,-396 -21.39,-357.45 18.98,-294.82 46.99,-260.13"/>
<polygon fill="black" stroke="black" points="49.75,-262.28 53.44,-252.35 44.37,-257.81 49.75,-262.28"/>
</g>
<!-- [root] root&#45;&gt;[root] provider[&quot;registry.terraform.io/hetznercloud/hcloud&quot;] (close) -->
<g id="edge19" class="edge">
<title>[root] root&#45;&gt;[root] provider[&quot;registry.terraform.io/hetznercloud/hcloud&quot;] (close)</title>
<path fill="none" stroke="black" d="M643.6,-439.41C590.13,-428.66 502.12,-410.95 435.16,-397.49"/>
<polygon fill="black" stroke="black" points="435.51,-393.99 425.02,-395.45 434.13,-400.85 435.51,-393.99"/>
</g>
<!-- [root] root&#45;&gt;[root] provider[&quot;registry.terraform.io/ovh/ovh&quot;] (close) -->
<g id="edge20" class="edge">
<title>[root] root&#45;&gt;[root] provider[&quot;registry.terraform.io/ovh/ovh&quot;] (close)</title>
<path fill="none" stroke="black" d="M737.9,-439.05C788.6,-428.22 870.73,-410.7 933.2,-397.37"/>
<polygon fill="black" stroke="black" points="934,-400.77 943.05,-395.26 932.54,-393.93 934,-400.77"/>
</g>
</g>
</svg>
